<mxfile host="app.diagrams.net" modified="2023-06-15T02:03:09.353Z" agent="Mozilla/5.0 (Windows NT 10.0; Win64; x64) AppleWebKit/537.36 (KHTML, like Gecko) Chrome/114.0.0.0 Safari/537.36" etag="EN9KR0hLCLKxQbc1mPmJ" version="21.4.0" type="github">
  <diagram name="Page-1" id="7a6c530e-6e37-e111-ec74-82921da8cc10">
    <mxGraphModel dx="915" dy="498" grid="1" gridSize="10" guides="1" tooltips="1" connect="1" arrows="1" fold="1" page="1" pageScale="1.5" pageWidth="1169" pageHeight="826" background="none" math="0" shadow="0">
      <root>
        <mxCell id="0" style=";html=1;" />
        <mxCell id="1" style=";html=1;" parent="0" />
        <mxCell id="23046e2b9bb16c14-116" value="Azure Group" style="whiteSpace=wrap;html=1;rounded=1;shadow=0;strokeColor=none;strokeWidth=2;fillColor=#009BFF;fontSize=20;fontColor=#FFFFFF;align=center;arcSize=3;verticalAlign=top;spacingTop=4;" parent="1" vertex="1">
          <mxGeometry x="287" y="217" width="1180" height="550" as="geometry" />
        </mxCell>
        <mxCell id="23046e2b9bb16c14-64" value="Web role instances" style="rounded=1;whiteSpace=wrap;html=1;shadow=0;strokeWidth=2;fillColor=#0072BC;fontSize=12;fontColor=#FFFFFF;align=center;strokeColor=none;arcSize=3;verticalAlign=top;" parent="1" vertex="1">
          <mxGeometry x="1286" y="291" width="150" height="420" as="geometry" />
        </mxCell>
        <mxCell id="23046e2b9bb16c14-27" value="" style="rounded=1;whiteSpace=wrap;html=1;shadow=0;strokeWidth=2;fillColor=#8BC63E;fontSize=12;fontColor=#000000;align=center;strokeColor=none;arcSize=3;" parent="1" vertex="1">
          <mxGeometry x="726" y="291" width="530" height="420" as="geometry" />
        </mxCell>
        <mxCell id="23046e2b9bb16c14-2" value="" style="rounded=1;whiteSpace=wrap;html=1;shadow=0;strokeWidth=2;fillColor=none;fontSize=12;fontColor=#000000;align=center;strokeColor=#FFFFFF;arcSize=10;" parent="1" vertex="1">
          <mxGeometry x="876" y="420" width="160" height="241" as="geometry" />
        </mxCell>
        <mxCell id="23046e2b9bb16c14-54" value="Availability set" style="rounded=1;whiteSpace=wrap;html=1;shadow=0;strokeWidth=2;fillColor=none;fontSize=11;fontColor=#FFFFFF;align=center;strokeColor=#FFFFFF;dashed=1;verticalAlign=top;" parent="1" vertex="1">
          <mxGeometry x="956" y="441" width="70" height="211" as="geometry" />
        </mxCell>
        <mxCell id="23046e2b9bb16c14-28" value="On-premises networks" style="rounded=1;whiteSpace=wrap;html=1;shadow=0;strokeWidth=2;fillColor=#F04D22;fontSize=12;fontColor=#FFFFFF;align=center;strokeColor=none;arcSize=6;verticalAlign=top;" parent="1" vertex="1">
          <mxGeometry x="466" y="378" width="230" height="330" as="geometry" />
        </mxCell>
        <mxCell id="23046e2b9bb16c14-49" value="" style="rounded=1;whiteSpace=wrap;html=1;shadow=0;strokeWidth=2;fillColor=none;fontSize=12;fontColor=#000000;align=center;strokeColor=#FFFFFF;" parent="1" vertex="1">
          <mxGeometry x="486" y="410" width="80" height="218" as="geometry" />
        </mxCell>
        <mxCell id="23046e2b9bb16c14-1" value="" style="rounded=1;whiteSpace=wrap;html=1;shadow=0;strokeWidth=2;fillColor=none;fontSize=12;fontColor=#000000;align=center;strokeColor=#FFFFFF;" parent="1" vertex="1">
          <mxGeometry x="746" y="420" width="110" height="221" as="geometry" />
        </mxCell>
        <mxCell id="24964f25f45c63f1-1" value="" style="verticalLabelPosition=bottom;html=1;verticalAlign=top;strokeColor=none;fillColor=#FFFFFF;shape=mxgraph.azure.computer;rounded=0;shadow=0;fontSize=12;fontColor=#000000;align=center;" parent="1" vertex="1">
          <mxGeometry x="501" y="424" width="50" height="45" as="geometry" />
        </mxCell>
        <mxCell id="24964f25f45c63f1-2" value="" style="verticalLabelPosition=bottom;html=1;verticalAlign=top;strokeColor=none;fillColor=#FFFFFF;shape=mxgraph.azure.computer;rounded=0;shadow=0;fontSize=12;fontColor=#000000;align=center;" parent="1" vertex="1">
          <mxGeometry x="501" y="494" width="50" height="45" as="geometry" />
        </mxCell>
        <mxCell id="24964f25f45c63f1-3" value="" style="verticalLabelPosition=bottom;html=1;verticalAlign=top;strokeColor=none;fillColor=#FFFFFF;shape=mxgraph.azure.computer;rounded=0;shadow=0;fontSize=12;fontColor=#000000;align=center;" parent="1" vertex="1">
          <mxGeometry x="501" y="564" width="50" height="45" as="geometry" />
        </mxCell>
        <mxCell id="23046e2b9bb16c14-73" style="html=1;startArrow=none;startFill=0;startSize=10;endArrow=none;endFill=0;endSize=10;strokeWidth=3;fontSize=11;fontColor=#FFFFFF;strokeColor=#FFFFFF;rounded=0;" parent="1" source="24964f25f45c63f1-5" target="23046e2b9bb16c14-7" edge="1">
          <mxGeometry relative="1" as="geometry" />
        </mxCell>
        <mxCell id="24964f25f45c63f1-5" value="Gateway" style="shadow=0;dashed=0;html=1;strokeColor=none;shape=mxgraph.mscae.enterprise.gateway;fillColor=#FFFFFF;rounded=0;fontSize=12;fontColor=#FFFFFF;align=center;labelPosition=center;verticalLabelPosition=top;verticalAlign=bottom;" parent="1" vertex="1">
          <mxGeometry x="773" y="541" width="50" height="50" as="geometry" />
        </mxCell>
        <mxCell id="24964f25f45c63f1-6" value="" style="shadow=0;dashed=0;html=1;strokeColor=none;shape=mxgraph.mscae.enterprise.lock;fillColor=#FFFFFF;rounded=0;fontSize=12;fontColor=#000000;align=center;" parent="1" vertex="1">
          <mxGeometry x="896" y="436" width="39" height="50" as="geometry" />
        </mxCell>
        <mxCell id="23046e2b9bb16c14-7" value="" style="shadow=0;dashed=0;html=1;strokeColor=none;labelPosition=center;verticalLabelPosition=bottom;verticalAlign=top;shape=mxgraph.mscae.cloud.azure_load_balancer_feature;fillColor=#FFFFFF;rounded=1;fontSize=12;fontColor=#000000;align=center;" parent="1" vertex="1">
          <mxGeometry x="891" y="541" width="50" height="50" as="geometry" />
        </mxCell>
        <mxCell id="23046e2b9bb16c14-75" style="html=1;startArrow=none;startFill=0;startSize=10;endArrow=none;endFill=0;endSize=10;strokeWidth=3;fontSize=11;fontColor=#FFFFFF;entryX=0.793;entryY=0.26;entryPerimeter=0;strokeColor=#FFFFFF;rounded=0;" parent="1" source="23046e2b9bb16c14-29" target="23046e2b9bb16c14-7" edge="1">
          <mxGeometry relative="1" as="geometry" />
        </mxCell>
        <mxCell id="23046e2b9bb16c14-29" value="" style="verticalLabelPosition=bottom;html=1;verticalAlign=top;strokeColor=none;fillColor=#FFFFFF;shape=mxgraph.azure.virtual_machine;rounded=1;shadow=0;fontSize=12;fontColor=#000000;align=center;" parent="1" vertex="1">
          <mxGeometry x="966" y="493" width="50" height="40" as="geometry" />
        </mxCell>
        <mxCell id="23046e2b9bb16c14-76" style="html=1;entryX=1.016;entryY=0.509;entryPerimeter=0;startArrow=none;startFill=0;startSize=10;endArrow=none;endFill=0;endSize=10;strokeWidth=3;fontSize=11;fontColor=#FFFFFF;strokeColor=#FFFFFF;rounded=0;" parent="1" source="23046e2b9bb16c14-30" target="23046e2b9bb16c14-7" edge="1">
          <mxGeometry relative="1" as="geometry" />
        </mxCell>
        <mxCell id="23046e2b9bb16c14-30" value="" style="verticalLabelPosition=bottom;html=1;verticalAlign=top;strokeColor=none;fillColor=#FFFFFF;shape=mxgraph.azure.virtual_machine;rounded=1;shadow=0;fontSize=12;fontColor=#000000;align=center;" parent="1" vertex="1">
          <mxGeometry x="966" y="546" width="50" height="40" as="geometry" />
        </mxCell>
        <mxCell id="23046e2b9bb16c14-77" style="html=1;entryX=0.802;entryY=0.762;entryPerimeter=0;startArrow=none;startFill=0;startSize=10;endArrow=none;endFill=0;endSize=10;strokeWidth=3;fontSize=11;fontColor=#FFFFFF;strokeColor=#FFFFFF;rounded=0;" parent="1" source="23046e2b9bb16c14-31" target="23046e2b9bb16c14-7" edge="1">
          <mxGeometry relative="1" as="geometry" />
        </mxCell>
        <mxCell id="23046e2b9bb16c14-31" value="" style="verticalLabelPosition=bottom;html=1;verticalAlign=top;strokeColor=none;fillColor=#FFFFFF;shape=mxgraph.azure.virtual_machine;rounded=1;shadow=0;fontSize=12;fontColor=#000000;align=center;" parent="1" vertex="1">
          <mxGeometry x="966" y="598" width="50" height="40" as="geometry" />
        </mxCell>
        <mxCell id="23046e2b9bb16c14-48" value="Azure Vnet" style="shadow=0;dashed=0;html=1;strokeColor=none;fillColor=#FFFFFF;labelPosition=center;verticalLabelPosition=bottom;verticalAlign=top;shape=mxgraph.office.clouds.azure;rounded=1;fontSize=12;fontColor=#FFFFFF;align=center;" parent="1" vertex="1">
          <mxGeometry x="756" y="311" width="83" height="53" as="geometry" />
        </mxCell>
        <mxCell id="23046e2b9bb16c14-50" value="" style="rounded=1;whiteSpace=wrap;html=1;shadow=0;strokeWidth=2;fillColor=none;fontSize=12;fontColor=#000000;align=center;strokeColor=#FFFFFF;" parent="1" vertex="1">
          <mxGeometry x="596" y="409" width="80" height="218" as="geometry" />
        </mxCell>
        <mxCell id="23046e2b9bb16c14-51" value="" style="verticalLabelPosition=bottom;html=1;verticalAlign=top;strokeColor=none;fillColor=#FFFFFF;shape=mxgraph.azure.computer;rounded=0;shadow=0;fontSize=12;fontColor=#000000;align=center;" parent="1" vertex="1">
          <mxGeometry x="611" y="423" width="50" height="45" as="geometry" />
        </mxCell>
        <mxCell id="23046e2b9bb16c14-52" value="" style="verticalLabelPosition=bottom;html=1;verticalAlign=top;strokeColor=none;fillColor=#FFFFFF;shape=mxgraph.azure.computer;rounded=0;shadow=0;fontSize=12;fontColor=#000000;align=center;" parent="1" vertex="1">
          <mxGeometry x="611" y="493" width="50" height="45" as="geometry" />
        </mxCell>
        <mxCell id="23046e2b9bb16c14-53" value="" style="verticalLabelPosition=bottom;html=1;verticalAlign=top;strokeColor=none;fillColor=#FFFFFF;shape=mxgraph.azure.computer;rounded=0;shadow=0;fontSize=12;fontColor=#000000;align=center;" parent="1" vertex="1">
          <mxGeometry x="611" y="563" width="50" height="45" as="geometry" />
        </mxCell>
        <mxCell id="23046e2b9bb16c14-71" style="edgeStyle=orthogonalEdgeStyle;html=1;startArrow=none;startFill=0;startSize=10;endArrow=none;endFill=0;endSize=10;strokeWidth=3;fontSize=11;fontColor=#FFFFFF;strokeColor=#FFFFFF;dashed=1;rounded=0;" parent="1" source="24964f25f45c63f1-4" target="24964f25f45c63f1-5" edge="1">
          <mxGeometry relative="1" as="geometry">
            <Array as="points">
              <mxPoint x="581" y="730" />
              <mxPoint x="798" y="730" />
            </Array>
          </mxGeometry>
        </mxCell>
        <mxCell id="24964f25f45c63f1-4" value="Gateway" style="shadow=0;dashed=0;html=1;strokeColor=none;shape=mxgraph.mscae.enterprise.gateway;fillColor=#FFFFFF;rounded=0;fontSize=12;fontColor=#FFFFFF;align=center;labelPosition=center;verticalLabelPosition=top;verticalAlign=bottom;" parent="1" vertex="1">
          <mxGeometry x="556" y="648" width="50" height="50" as="geometry" />
        </mxCell>
        <mxCell id="23046e2b9bb16c14-55" value="" style="rounded=1;whiteSpace=wrap;html=1;shadow=0;strokeWidth=2;fillColor=none;fontSize=12;fontColor=#000000;align=center;strokeColor=#FFFFFF;arcSize=9;" parent="1" vertex="1">
          <mxGeometry x="1071" y="420" width="160" height="241" as="geometry" />
        </mxCell>
        <mxCell id="23046e2b9bb16c14-56" value="&lt;span&gt;Availability set&lt;/span&gt;" style="rounded=1;whiteSpace=wrap;html=1;shadow=0;strokeWidth=2;fillColor=none;fontSize=11;fontColor=#FFFFFF;align=center;strokeColor=#FFFFFF;dashed=1;verticalAlign=top;" parent="1" vertex="1">
          <mxGeometry x="1151" y="441" width="70" height="211" as="geometry" />
        </mxCell>
        <mxCell id="23046e2b9bb16c14-57" value="" style="shadow=0;dashed=0;html=1;strokeColor=none;shape=mxgraph.mscae.enterprise.lock;fillColor=#FFFFFF;rounded=0;fontSize=12;fontColor=#000000;align=center;" parent="1" vertex="1">
          <mxGeometry x="1091" y="436" width="39" height="50" as="geometry" />
        </mxCell>
        <mxCell id="23046e2b9bb16c14-74" style="html=1;startArrow=none;startFill=0;startSize=10;endArrow=none;endFill=0;endSize=10;strokeWidth=3;fontSize=11;fontColor=#FFFFFF;strokeColor=#FFFFFF;rounded=0;edgeStyle=elbowEdgeStyle;elbow=vertical;" parent="1" source="23046e2b9bb16c14-58" target="23046e2b9bb16c14-2" edge="1">
          <mxGeometry relative="1" as="geometry" />
        </mxCell>
        <mxCell id="23046e2b9bb16c14-78" style="edgeStyle=orthogonalEdgeStyle;html=1;startArrow=none;startFill=0;startSize=10;endArrow=none;endFill=0;endSize=10;strokeWidth=3;fontSize=11;fontColor=#FFFFFF;strokeColor=#FFFFFF;rounded=0;" parent="1" source="23046e2b9bb16c14-58" target="23046e2b9bb16c14-60" edge="1">
          <mxGeometry relative="1" as="geometry" />
        </mxCell>
        <mxCell id="23046e2b9bb16c14-79" style="html=1;startArrow=none;startFill=0;startSize=10;endArrow=none;endFill=0;endSize=10;strokeWidth=3;fontSize=11;fontColor=#FFFFFF;strokeColor=#FFFFFF;rounded=0;exitX=0.796;exitY=0.241;exitPerimeter=0;" parent="1" source="23046e2b9bb16c14-58" target="23046e2b9bb16c14-59" edge="1">
          <mxGeometry relative="1" as="geometry" />
        </mxCell>
        <mxCell id="23046e2b9bb16c14-80" style="html=1;startArrow=none;startFill=0;startSize=10;endArrow=none;endFill=0;endSize=10;strokeWidth=3;fontSize=11;fontColor=#FFFFFF;strokeColor=#FFFFFF;rounded=0;exitX=0.789;exitY=0.767;exitPerimeter=0;" parent="1" source="23046e2b9bb16c14-58" target="23046e2b9bb16c14-61" edge="1">
          <mxGeometry relative="1" as="geometry" />
        </mxCell>
        <mxCell id="23046e2b9bb16c14-58" value="" style="shadow=0;dashed=0;html=1;strokeColor=none;labelPosition=center;verticalLabelPosition=bottom;verticalAlign=top;shape=mxgraph.mscae.cloud.azure_load_balancer_feature;fillColor=#FFFFFF;rounded=1;fontSize=12;fontColor=#000000;align=center;" parent="1" vertex="1">
          <mxGeometry x="1086" y="541" width="50" height="50" as="geometry" />
        </mxCell>
        <mxCell id="23046e2b9bb16c14-59" value="" style="verticalLabelPosition=bottom;html=1;verticalAlign=top;strokeColor=none;fillColor=#FFFFFF;shape=mxgraph.azure.virtual_machine;rounded=1;shadow=0;fontSize=12;fontColor=#000000;align=center;" parent="1" vertex="1">
          <mxGeometry x="1161" y="493" width="50" height="40" as="geometry" />
        </mxCell>
        <mxCell id="23046e2b9bb16c14-60" value="" style="verticalLabelPosition=bottom;html=1;verticalAlign=top;strokeColor=none;fillColor=#FFFFFF;shape=mxgraph.azure.virtual_machine;rounded=1;shadow=0;fontSize=12;fontColor=#000000;align=center;" parent="1" vertex="1">
          <mxGeometry x="1161" y="546" width="50" height="40" as="geometry" />
        </mxCell>
        <mxCell id="23046e2b9bb16c14-61" value="" style="verticalLabelPosition=bottom;html=1;verticalAlign=top;strokeColor=none;fillColor=#FFFFFF;shape=mxgraph.azure.virtual_machine;rounded=1;shadow=0;fontSize=12;fontColor=#000000;align=center;" parent="1" vertex="1">
          <mxGeometry x="1161" y="598" width="50" height="40" as="geometry" />
        </mxCell>
        <mxCell id="23046e2b9bb16c14-69" style="edgeStyle=orthogonalEdgeStyle;html=1;startArrow=none;startFill=0;startSize=10;endArrow=none;endFill=0;endSize=10;strokeWidth=3;fontSize=11;fontColor=#FFFFFF;strokeColor=#FFFFFF;dashed=1;rounded=0;" parent="1" source="23046e2b9bb16c14-62" target="23046e2b9bb16c14-63" edge="1">
          <mxGeometry relative="1" as="geometry" />
        </mxCell>
        <mxCell id="23046e2b9bb16c14-62" value="Firewall" style="shadow=0;dashed=0;html=1;strokeColor=none;labelPosition=right;verticalLabelPosition=middle;verticalAlign=middle;shape=mxgraph.office.concepts.firewall;fillColor=#FFFFFF;rounded=1;fontSize=11;fontColor=#FFFFFF;align=left;spacingLeft=5;" parent="1" vertex="1">
          <mxGeometry x="328" y="475" width="47" height="43" as="geometry" />
        </mxCell>
        <mxCell id="23046e2b9bb16c14-70" style="edgeStyle=orthogonalEdgeStyle;html=1;startArrow=none;startFill=0;startSize=10;endArrow=none;endFill=0;endSize=10;strokeWidth=3;fontSize=11;fontColor=#FFFFFF;strokeColor=#FFFFFF;dashed=1;rounded=0;" parent="1" source="24964f25f45c63f1-4" target="23046e2b9bb16c14-68" edge="1">
          <mxGeometry relative="1" as="geometry">
            <mxPoint x="606" y="730" as="sourcePoint" />
            <Array as="points">
              <mxPoint x="581" y="730" />
              <mxPoint x="1361" y="730" />
            </Array>
          </mxGeometry>
        </mxCell>
        <mxCell id="23046e2b9bb16c14-72" style="edgeStyle=orthogonalEdgeStyle;html=1;startArrow=none;startFill=0;startSize=10;endArrow=none;endFill=0;endSize=10;strokeWidth=3;fontSize=11;fontColor=#FFFFFF;strokeColor=#FFFFFF;dashed=1;rounded=0;" parent="1" source="23046e2b9bb16c14-63" target="24964f25f45c63f1-4" edge="1">
          <mxGeometry relative="1" as="geometry">
            <Array as="points">
              <mxPoint x="351" y="730" />
              <mxPoint x="581" y="730" />
            </Array>
          </mxGeometry>
        </mxCell>
        <mxCell id="23046e2b9bb16c14-63" value="Windows&lt;div&gt;Azure&lt;/div&gt;&lt;div&gt;Load&lt;/div&gt;&lt;div&gt;Balancer&lt;/div&gt;" style="verticalLabelPosition=middle;html=1;verticalAlign=middle;strokeColor=none;fillColor=#FFFFFF;shape=mxgraph.azure.azure_load_balancer;rounded=1;shadow=0;dashed=1;fontSize=11;fontColor=#FFFFFF;align=left;labelPosition=right;spacingLeft=5;" parent="1" vertex="1">
          <mxGeometry x="326" y="593" width="50" height="35" as="geometry" />
        </mxCell>
        <mxCell id="23046e2b9bb16c14-65" value="" style="shadow=0;dashed=0;html=1;strokeColor=none;shape=mxgraph.mscae.enterprise.web;fillColor=#FFFFFF;rounded=1;fontSize=11;fontColor=#FFFFFF;align=center;" parent="1" vertex="1">
          <mxGeometry x="1336" y="531" width="50" height="50" as="geometry" />
        </mxCell>
        <mxCell id="23046e2b9bb16c14-66" value="" style="shadow=0;dashed=0;html=1;strokeColor=none;shape=mxgraph.mscae.enterprise.web;fillColor=#FFFFFF;rounded=1;fontSize=11;fontColor=#FFFFFF;align=center;" parent="1" vertex="1">
          <mxGeometry x="1336" y="450" width="50" height="50" as="geometry" />
        </mxCell>
        <mxCell id="23046e2b9bb16c14-67" value="" style="shadow=0;dashed=0;html=1;strokeColor=none;shape=mxgraph.mscae.enterprise.web;fillColor=#FFFFFF;rounded=1;fontSize=11;fontColor=#FFFFFF;align=center;" parent="1" vertex="1">
          <mxGeometry x="1336" y="370" width="50" height="50" as="geometry" />
        </mxCell>
        <mxCell id="23046e2b9bb16c14-117" style="edgeStyle=orthogonalEdgeStyle;rounded=0;elbow=vertical;html=1;startArrow=none;startFill=0;startSize=10;endArrow=none;endFill=0;endSize=10;strokeColor=#FFFFFF;strokeWidth=3;fontSize=20;fontColor=#FFFFFF;entryX=0.004;entryY=0.516;entryPerimeter=0;" parent="1" source="23046e2b9bb16c14-68" target="23046e2b9bb16c14-65" edge="1">
          <mxGeometry relative="1" as="geometry">
            <mxPoint x="1520" y="590" as="targetPoint" />
            <Array as="points">
              <mxPoint x="1326" y="673" />
              <mxPoint x="1326" y="557" />
            </Array>
          </mxGeometry>
        </mxCell>
        <mxCell id="23046e2b9bb16c14-119" style="edgeStyle=orthogonalEdgeStyle;rounded=0;elbow=vertical;html=1;entryX=-0.002;entryY=0.494;entryPerimeter=0;startArrow=none;startFill=0;startSize=10;endArrow=none;endFill=0;endSize=10;strokeColor=#FFFFFF;strokeWidth=3;fontSize=20;fontColor=#FFFFFF;" parent="1" source="23046e2b9bb16c14-68" target="23046e2b9bb16c14-67" edge="1">
          <mxGeometry relative="1" as="geometry">
            <Array as="points">
              <mxPoint x="1326" y="673" />
              <mxPoint x="1326" y="395" />
            </Array>
          </mxGeometry>
        </mxCell>
        <mxCell id="23046e2b9bb16c14-68" value="Gateway" style="shadow=0;dashed=0;html=1;strokeColor=none;shape=mxgraph.mscae.enterprise.gateway;fillColor=#FFFFFF;rounded=0;fontSize=12;fontColor=#FFFFFF;align=center;labelPosition=center;verticalLabelPosition=top;verticalAlign=bottom;" parent="1" vertex="1">
          <mxGeometry x="1336" y="648" width="50" height="50" as="geometry" />
        </mxCell>
        <mxCell id="23046e2b9bb16c14-81" value="A" style="text;html=1;strokeColor=none;fillColor=none;align=center;verticalAlign=middle;whiteSpace=wrap;rounded=1;shadow=0;fontSize=11;fontColor=#FFFFFF;fontStyle=1" parent="1" vertex="1">
          <mxGeometry x="666" y="678" width="20" height="20" as="geometry" />
        </mxCell>
        <mxCell id="23046e2b9bb16c14-82" value="B" style="text;html=1;strokeColor=none;fillColor=none;align=center;verticalAlign=middle;whiteSpace=wrap;rounded=1;shadow=0;fontSize=11;fontColor=#FFFFFF;fontStyle=1" parent="1" vertex="1">
          <mxGeometry x="1226" y="678" width="20" height="20" as="geometry" />
        </mxCell>
        <mxCell id="23046e2b9bb16c14-83" value="C" style="text;html=1;strokeColor=none;fillColor=none;align=center;verticalAlign=middle;whiteSpace=wrap;rounded=1;shadow=0;fontSize=11;fontColor=#FFFFFF;fontStyle=1" parent="1" vertex="1">
          <mxGeometry x="1406" y="680" width="20" height="20" as="geometry" />
        </mxCell>
        <mxCell id="23046e2b9bb16c14-84" value="" style="rounded=0;whiteSpace=wrap;html=1;shadow=0;strokeWidth=2;fillColor=#F04D22;fontSize=12;fontColor=#FFFFFF;align=center;strokeColor=none;arcSize=6;verticalAlign=top;" parent="1" vertex="1">
          <mxGeometry x="326" y="820" width="300" height="102" as="geometry" />
        </mxCell>
        <mxCell id="23046e2b9bb16c14-85" value="" style="rounded=0;whiteSpace=wrap;html=1;shadow=0;strokeWidth=2;fillColor=#8BC63E;fontSize=12;fontColor=#FFFFFF;align=center;strokeColor=none;arcSize=6;verticalAlign=top;" parent="1" vertex="1">
          <mxGeometry x="626" y="820" width="400" height="102" as="geometry" />
        </mxCell>
        <mxCell id="23046e2b9bb16c14-86" value="" style="rounded=0;whiteSpace=wrap;html=1;shadow=0;strokeWidth=2;fillColor=#0072BC;fontSize=12;fontColor=#FFFFFF;align=center;strokeColor=none;arcSize=3;verticalAlign=top;" parent="1" vertex="1">
          <mxGeometry x="1026" y="820" width="390" height="102" as="geometry" />
        </mxCell>
        <mxCell id="23046e2b9bb16c14-87" value="A" style="text;html=1;strokeColor=none;fillColor=none;align=center;verticalAlign=middle;whiteSpace=wrap;rounded=1;shadow=0;fontSize=30;fontColor=#FFFFFF;fontStyle=1" parent="1" vertex="1">
          <mxGeometry x="326" y="853" width="40" height="35" as="geometry" />
        </mxCell>
        <mxCell id="23046e2b9bb16c14-88" value="B" style="text;html=1;strokeColor=none;fillColor=none;align=center;verticalAlign=middle;whiteSpace=wrap;rounded=1;shadow=0;fontSize=30;fontColor=#FFFFFF;fontStyle=1" parent="1" vertex="1">
          <mxGeometry x="626" y="853" width="40" height="35" as="geometry" />
        </mxCell>
        <mxCell id="23046e2b9bb16c14-89" value="C" style="text;html=1;strokeColor=none;fillColor=none;align=center;verticalAlign=middle;whiteSpace=wrap;rounded=1;shadow=0;fontSize=30;fontColor=#FFFFFF;fontStyle=1" parent="1" vertex="1">
          <mxGeometry x="1026" y="853" width="40" height="35" as="geometry" />
        </mxCell>
        <mxCell id="23046e2b9bb16c14-90" value="Computer" style="verticalLabelPosition=top;html=1;verticalAlign=bottom;strokeColor=none;fillColor=#FFFFFF;shape=mxgraph.azure.computer;rounded=0;shadow=0;fontSize=10;fontColor=#FFFFFF;align=center;labelPosition=center;" parent="1" vertex="1">
          <mxGeometry x="393" y="860" width="50" height="45" as="geometry" />
        </mxCell>
        <mxCell id="23046e2b9bb16c14-91" value="VHD" style="shadow=0;html=1;strokeColor=none;fillColor=#FFFFFF;labelPosition=center;verticalLabelPosition=top;verticalAlign=bottom;shape=mxgraph.azure.vhd;rounded=0;fontSize=10;fontColor=#FFFFFF;align=center;" parent="1" vertex="1">
          <mxGeometry x="483" y="857" width="40" height="50" as="geometry" />
        </mxCell>
        <mxCell id="23046e2b9bb16c14-92" value="+" style="text;html=1;strokeColor=none;fillColor=none;align=center;verticalAlign=middle;whiteSpace=wrap;rounded=1;shadow=0;fontSize=30;fontColor=#FFFFFF;fontStyle=1" parent="1" vertex="1">
          <mxGeometry x="443" y="865" width="40" height="35" as="geometry" />
        </mxCell>
        <mxCell id="23046e2b9bb16c14-93" value="+" style="text;html=1;strokeColor=none;fillColor=none;align=center;verticalAlign=middle;whiteSpace=wrap;rounded=1;shadow=0;fontSize=30;fontColor=#FFFFFF;fontStyle=1" parent="1" vertex="1">
          <mxGeometry x="523" y="865" width="40" height="35" as="geometry" />
        </mxCell>
        <mxCell id="23046e2b9bb16c14-94" value="Server&lt;div&gt;Directory&lt;/div&gt;" style="shadow=0;html=1;strokeColor=none;shape=mxgraph.mscae.enterprise.server_directory;fillColor=#FFFFFF;rounded=0;fontSize=10;fontColor=#FFFFFF;align=center;verticalAlign=bottom;labelPosition=center;verticalLabelPosition=top;" parent="1" vertex="1">
          <mxGeometry x="563" y="858" width="36" height="50" as="geometry" />
        </mxCell>
        <mxCell id="23046e2b9bb16c14-95" value="VM Feature" style="shadow=0;html=1;strokeColor=none;fillColor=#FFFFFF;labelPosition=center;verticalLabelPosition=top;verticalAlign=bottom;shape=mxgraph.azure.virtual_machine_feature;rounded=0;fontSize=10;fontColor=#FFFFFF;align=center;" parent="1" vertex="1">
          <mxGeometry x="684" y="861" width="50" height="45" as="geometry" />
        </mxCell>
        <mxCell id="23046e2b9bb16c14-96" value="+" style="text;html=1;strokeColor=none;fillColor=none;align=center;verticalAlign=middle;whiteSpace=wrap;rounded=1;shadow=0;fontSize=30;fontColor=#FFFFFF;fontStyle=1" parent="1" vertex="1">
          <mxGeometry x="734" y="866" width="40" height="35" as="geometry" />
        </mxCell>
        <mxCell id="23046e2b9bb16c14-97" value="VHD" style="shadow=0;html=1;strokeColor=none;fillColor=#FFFFFF;labelPosition=center;verticalLabelPosition=top;verticalAlign=bottom;shape=mxgraph.azure.vhd;rounded=0;fontSize=10;fontColor=#FFFFFF;align=center;" parent="1" vertex="1">
          <mxGeometry x="774" y="858" width="40" height="50" as="geometry" />
        </mxCell>
        <mxCell id="23046e2b9bb16c14-98" value="3rd Party&lt;div&gt;Integration&lt;/div&gt;" style="shadow=0;html=1;strokeColor=none;fillColor=#FFFFFF;labelPosition=center;verticalLabelPosition=top;verticalAlign=bottom;shape=mxgraph.office.communications.3rd_party_integration;rounded=0;fontSize=10;fontColor=#FFFFFF;align=center;" parent="1" vertex="1">
          <mxGeometry x="854" y="856" width="54" height="55" as="geometry" />
        </mxCell>
        <mxCell id="23046e2b9bb16c14-99" value="+" style="text;html=1;strokeColor=none;fillColor=none;align=center;verticalAlign=middle;whiteSpace=wrap;rounded=1;shadow=0;fontSize=30;fontColor=#FFFFFF;fontStyle=1" parent="1" vertex="1">
          <mxGeometry x="814" y="866" width="40" height="35" as="geometry" />
        </mxCell>
        <mxCell id="23046e2b9bb16c14-100" value="+" style="text;html=1;strokeColor=none;fillColor=none;align=center;verticalAlign=middle;whiteSpace=wrap;rounded=1;shadow=0;fontSize=30;fontColor=#FFFFFF;fontStyle=1" parent="1" vertex="1">
          <mxGeometry x="908" y="866" width="40" height="35" as="geometry" />
        </mxCell>
        <mxCell id="23046e2b9bb16c14-101" value="Data Migration&lt;div&gt;Wizard&lt;/div&gt;" style="shadow=0;html=1;strokeColor=none;shape=mxgraph.mscae.intune.data_migration_wizard;fillColor=#FFFFFF;rounded=0;fontSize=10;fontColor=#FFFFFF;align=center;verticalAlign=bottom;labelPosition=center;verticalLabelPosition=top;" parent="1" vertex="1">
          <mxGeometry x="948" y="859" width="50" height="48" as="geometry" />
        </mxCell>
        <mxCell id="23046e2b9bb16c14-102" value="VM Feature" style="shadow=0;html=1;strokeColor=none;fillColor=#FFFFFF;labelPosition=center;verticalLabelPosition=top;verticalAlign=bottom;shape=mxgraph.azure.virtual_machine_feature;rounded=0;fontSize=10;fontColor=#FFFFFF;align=center;" parent="1" vertex="1">
          <mxGeometry x="1086" y="861" width="50" height="45" as="geometry" />
        </mxCell>
        <mxCell id="23046e2b9bb16c14-103" value="" style="line;strokeWidth=2;direction=south;html=1;rounded=0;shadow=0;fillColor=none;fontSize=30;fontColor=#FFFFFF;align=center;strokeColor=#FFFFFF;" parent="1" vertex="1">
          <mxGeometry x="366" y="820" width="10" height="102" as="geometry" />
        </mxCell>
        <mxCell id="23046e2b9bb16c14-104" value="" style="line;strokeWidth=2;direction=south;html=1;rounded=0;shadow=0;fillColor=none;fontSize=30;fontColor=#FFFFFF;align=center;strokeColor=#FFFFFF;" parent="1" vertex="1">
          <mxGeometry x="666" y="820" width="10" height="102" as="geometry" />
        </mxCell>
        <mxCell id="23046e2b9bb16c14-105" value="" style="line;strokeWidth=2;direction=south;html=1;rounded=0;shadow=0;fillColor=none;fontSize=30;fontColor=#FFFFFF;align=center;strokeColor=#FFFFFF;" parent="1" vertex="1">
          <mxGeometry x="1066" y="820" width="10" height="102" as="geometry" />
        </mxCell>
        <mxCell id="23046e2b9bb16c14-106" value="+" style="text;html=1;strokeColor=none;fillColor=none;align=center;verticalAlign=middle;whiteSpace=wrap;rounded=1;shadow=0;fontSize=30;fontColor=#FFFFFF;fontStyle=1" parent="1" vertex="1">
          <mxGeometry x="1136" y="866" width="40" height="35" as="geometry" />
        </mxCell>
        <mxCell id="23046e2b9bb16c14-107" value="Azure&lt;div&gt;Website&lt;/div&gt;" style="verticalLabelPosition=top;html=1;verticalAlign=bottom;strokeColor=none;fillColor=#FFFFFF;shape=mxgraph.azure.azure_website;rounded=0;shadow=0;fontSize=10;fontColor=#FFFFFF;align=center;labelPosition=center;" parent="1" vertex="1">
          <mxGeometry x="1176" y="858" width="50" height="50" as="geometry" />
        </mxCell>
        <mxCell id="23046e2b9bb16c14-108" value="+" style="text;html=1;strokeColor=none;fillColor=none;align=center;verticalAlign=middle;whiteSpace=wrap;rounded=1;shadow=0;fontSize=30;fontColor=#FFFFFF;fontStyle=1" parent="1" vertex="1">
          <mxGeometry x="1226" y="866" width="40" height="35" as="geometry" />
        </mxCell>
        <mxCell id="23046e2b9bb16c14-109" value="MySQL&lt;div&gt;Database&lt;/div&gt;" style="verticalLabelPosition=top;html=1;verticalAlign=bottom;strokeColor=none;fillColor=#FFFFFF;shape=mxgraph.azure.mysql_database;rounded=0;shadow=0;fontSize=10;fontColor=#FFFFFF;align=center;labelPosition=center;" parent="1" vertex="1">
          <mxGeometry x="1266" y="859" width="37.5" height="50" as="geometry" />
        </mxCell>
        <mxCell id="23046e2b9bb16c14-110" value="+" style="text;html=1;strokeColor=none;fillColor=none;align=center;verticalAlign=middle;whiteSpace=wrap;rounded=1;shadow=0;fontSize=30;fontColor=#FFFFFF;fontStyle=1" parent="1" vertex="1">
          <mxGeometry x="1304" y="866" width="40" height="35" as="geometry" />
        </mxCell>
        <mxCell id="23046e2b9bb16c14-111" value="Azure&lt;div&gt;Storage&lt;/div&gt;" style="shadow=0;html=1;strokeColor=none;labelPosition=center;verticalLabelPosition=top;verticalAlign=bottom;shape=mxgraph.mscae.cloud.azure_storage;fillColor=#FFFFFF;rounded=0;fontSize=10;fontColor=#FFFFFF;align=center;" parent="1" vertex="1">
          <mxGeometry x="1344" y="862" width="50" height="43" as="geometry" />
        </mxCell>
        <mxCell id="23046e2b9bb16c14-113" value="Title" style="text;strokeColor=none;fillColor=none;html=1;fontSize=24;fontStyle=1;verticalAlign=middle;align=center;rounded=0;shadow=0;fontColor=#FFFFFF;" parent="1" vertex="1">
          <mxGeometry x="120" y="40" width="1510" height="40" as="geometry" />
        </mxCell>
        <mxCell id="23046e2b9bb16c14-114" value="Subtitle" style="text;html=1;strokeColor=none;fillColor=none;align=center;verticalAlign=middle;whiteSpace=wrap;rounded=0;shadow=0;fontSize=10;fontColor=#009BFF;" parent="1" vertex="1">
          <mxGeometry x="114" y="90" width="1526" height="20" as="geometry" />
        </mxCell>
        <mxCell id="23046e2b9bb16c14-115" value="&lt;h1&gt;Heading&lt;/h1&gt;&lt;p&gt;Lorem ipsum dolor sit amet, consectetur adipisicing elit, sed do eiusmod tempor incididunt ut labore et dolore magna aliqua.&lt;/p&gt;" style="text;html=1;strokeColor=none;fillColor=none;spacing=5;spacingTop=-20;whiteSpace=wrap;overflow=hidden;rounded=0;shadow=0;fontSize=10;fontColor=#FFFFFF;align=left;" parent="1" vertex="1">
          <mxGeometry x="323" y="952" width="1041" height="70" as="geometry" />
        </mxCell>
        <mxCell id="23046e2b9bb16c14-118" style="edgeStyle=orthogonalEdgeStyle;rounded=0;elbow=vertical;html=1;startArrow=none;startFill=0;startSize=10;endArrow=none;endFill=0;endSize=10;strokeColor=#FFFFFF;strokeWidth=3;fontSize=20;fontColor=#FFFFFF;entryX=-0.009;entryY=0.502;entryPerimeter=0;" parent="1" source="23046e2b9bb16c14-68" target="23046e2b9bb16c14-66" edge="1">
          <mxGeometry relative="1" as="geometry">
            <mxPoint x="1346.3333333333333" y="566.6666666666666" as="targetPoint" />
            <mxPoint x="1371" y="658" as="sourcePoint" />
            <Array as="points">
              <mxPoint x="1326" y="673" />
              <mxPoint x="1326" y="475" />
            </Array>
          </mxGeometry>
        </mxCell>
        <mxCell id="B0hOVwlSUektJ_psYXs9-1" value="" style="shape=image;verticalLabelPosition=bottom;labelBackgroundColor=default;verticalAlign=top;aspect=fixed;imageAspect=0;image=data:image/jpeg,/9j/4AAQSkZJRgABAQEAlgCWAAD/2wBDAAMCAgMCAgMDAwMEAwMEBQgFBQQEBQoHBwYIDAoMDAsKCwsNDhIQDQ4RDgsLEBYQERMUFRUVDA8XGBYUGBIUFRT/2wBDAQMEBAUEBQkFBQkUDQsNFBQUFBQUFBQUFBQUFBQUFBQUFBQUFBQUFBQUFBQUFBQUFBQUFBQUFBQUFBQUFBQUFBT/wAARCAE4AisDASIAAhEBAxEB/8QAHwAAAQUBAQEBAQEAAAAAAAAAAAECAwQFBgcICQoL/8QAtRAAAgEDAwIEAwUFBAQAAAF9AQIDAAQRBRIhMUEGE1FhByJxFDKBkaEII0KxwRVS0fAkM2JyggkKFhcYGRolJicoKSo0NTY3ODk6Q0RFRkdISUpTVFVWV1hZWmNkZWZnaGlqc3R1dnd4eXqDhIWGh4iJipKTlJWWl5iZmqKjpKWmp6ipqrKztLW2t7i5usLDxMXGx8jJytLT1NXW19jZ2uHi4+Tl5ufo6erx8vP09fb3+Pn6/8QAHwEAAwEBAQEBAQEBAQAAAAAAAAECAwQFBgcICQoL/8QAtREAAgECBAQDBAcFBAQAAQJ3AAECAxEEBSExBhJBUQdhcRMiMoEIFEKRobHBCSMzUvAVYnLRChYkNOEl8RcYGRomJygpKjU2Nzg5OkNERUZHSElKU1RVVldYWVpjZGVmZ2hpanN0dXZ3eHl6goOEhYaHiImKkpOUlZaXmJmaoqOkpaanqKmqsrO0tba3uLm6wsPExcbHyMnK0tPU1dbX2Nna4uPk5ebn6Onq8vP09fb3+Pn6/9oADAMBAAIRAxEAPwD7bpGPFLTW9cV9afCDAxHvT1YGo6KkZNT1X1qJD2qVDxUmiHUUUVQmOWo/m39afuwKYXG4mmhSJEcsOaduqOP7pqRaBrYNtG2nbTTgh9KVx6irVmOolXFTLxUFj91Opo5qWNMsKzbsihVjJq3GpVaake2p0SudyvuWojl6U6nBcUpXisJWOiCsQ05aGHNC9aA2ZJSbaWnbu3apNNyvJVSRauyVSmPJraJhIhY4FVLnOzFWpD8tZ95MFU89K66aucs3ZanK6+rKGIJryzxTdbAwY16T4i1IQq27pXj3jC/W6kIjPevvsnpttXWh+cZ5WjGLSepyM7B5SR0plLSZr9BVkrI/Lnq7sueTmNcVWkj2tVizctkE8Ul6v3TWcfisbSScboq0UUVsc45elLTadUMBNtNp5plCGhyfeqSmR96fSZQq0tItLUMoKKKKQBRRRQAUUUUwFpQabTlpDRatztXNW9ysBkVRgyO1TMaxktTsg9Alf0pjSU1s56U2rSsjGUnckUk9adSL92lpgFTKowSTUO0npU6xk96zkbQQzd82AKkWMsuSakVQvbmlk/d4rK5rYptwxqKQgc1anj/iFVJlNbxd0c1RWImYn6U1qdtPpTWXHNWjAbS7TSE02qJPrcwim+UBUzMKacetfhx/RHMyEwqaQ247GpsUu2gFJlfydnPWlVehzVjGeO1N2YpNGkZDKXaafgU5cUja6I2j3DHShYB35qbFFUOyGhNvSnqPakopDHUu6mZ9qTkUrGfMWFxUq1UWSrKSZqbGidyZV9asRjtVdalWTpWErmhbWplbAqqsnrzTxKK57dy1Is+ZTvN3cVV8wUGQLzmlyovnLDMBzUfnCqz3A6UkcmetHIHtOxdV91P3CqwYdqRpqTiaRloSStVKRs1LJJ1z0qpJMB3rWMTGUiC6l2qTmuV1vU2hRsGtvUbhdpwea4HxFdMQwBr3MFQ5pK54GPruEXY5nxBr7TB1f6V5nqlyWuDg8Guo19iuTnvXGXBLOc1+o5fRjCOh+P5piJVJ2kMP3c03FO7Uq9QK9k+eJ4CYYy3eiaUSqp71EzHkZ4pox+NSk9zRuysK1NpSc0lWjIKWkpaYC9RSUvSm1CGiUDFLSL0FLUlAOtOpo606pYwooopAFFFFAwakWlopiCrMKgrVarNv938allw1ZZhh3MKtNb46CnW67cGrSsO4zXFKbuenTpqxmSW525NV2jrWuIjt6cVTWEbuRWkamhnOnZ2K6oW4AzU0dqW5bir8FqpGelWBAi+9RKt2NI0epSS2GKZIu3vV5tm3jg1n3bAdOKiMnJlTiooZ5o/Gms5Y8nioF+71p3PAro5epzcxNu+Uiq7EZJp+Krz547CqiTN6DJZieBwKh+ppTTTWyOS9xM0UUVZB9cUU1qAa/DT+hx1LuptLSAdmnCo6NxoKuPx6ULxSb6XzKC1Ow6lBpm6kLHigp1CTjuaQso71EzH1puTT5SOZkhkHao99N2n+9TFG41ryognXrkVYjkqsrbad5gHJOKyauaxnY0FkzUgb3rLFwq/xUDUNp55rPkbNfao1d/vS+bjvWZ/aSmj7cPWp9kx+0iaW/wB6PM96zhd7j1qeO4TjLc0uSw1NPYtKd1TKcYrPkvkj71G2rIpxmpcJS2K9pFbs1fM9KY04FZcmrJtyGrKvNeEefm4+tXDDzk7Gc8TCC3OguLoKpJqjNeoy9a5hvEyM21n/AFqvca4qrndXoQwU+qPOnj4O9maWoXPXBrk9WZcMzHjFJfeKIo1JLc1w2veJHutyo3FfR4LBVHJaWPlswzCnGL1uZ3iK486Zgh4zXMSJ8xq/PMGzu6mqLV95Rh7OKR+aYmp7WbkQnjikpWpK7UeeL/DSUUU0MKKKKBBS0lFADmptOFNNQNEo6UtIOgpakYUoakooKAk59qVaSigQ6ikWkqbFC7qN1HFJTEKKuW/QYqlWjZqpAzUT0RtSXvGhEMIDUsZLNikVBtAqa3iy2T0rzpM9WEXdEzwmSMAVXltCvJrRMoRMDiqUl0OcnNZRb6G84x6kKttGM4oabaM5zVaSYGomcY610clzl530HyXnpVSSbc2CaG+tMbacE9a6IxSOSUmx4H5U9cVVeUhsDpRG7M3Jq2jNSVy6Kq3HT8atZ2xnHU1VkU4OamBpU+EqGm1Iyle1MIxXQjjYlFFFMk+mF8TwNjDVPHr0D4+cV4JH4kmDfeP51ch8WTL1Y5r4OWRvofpsOIovc95j1OJv4hVmO4V+hrw228bSRkZc10Ol+OPMwGevNrZPVpq6PUoZ3RqOzPVd1G6uTs/FSSKAWq5/wkUWOWzXkSwlSLtY9qOLpSV0zotw/wAilyDXNN4hiz94Uf8ACQR/3qPqs+xX1ul3Om3L3NNaZelcy3iBMZzzULeIFbvTWEn2E8ZTXU6V7gZqFrr3ArmG14En5qi/toHjNbxwkznljodGdQb4f3qFuh/erlW1ZfWpI9VGRzVvCtakLGpnVfaPQ5prS+pzWJHqIPG7FEmoDHXNY/V2b/WE+pqTXSpn1qhNqgXI3VjXmrBc81g32uAZw1ehRwcpHn1scqfU6x9cCd/1qnN4mEfO7j615/f+ICufnrGuNckkyFY5+tezSynm1Z4FbOuXZnqn/CZqp5kpV8dIGA3145JfTMclyBSLqDhvv12f2NTsef8A6wVbnsNx4y3chs1Ubxdv43YNebw6lIy9eaj/ALQkWTJP60o5TTiOWc1Ja3PTf+EkYrnfkVl3niBpFPzVyMd/JtHzVDJdSYyTxVwwEIszqZpOSsbFxrUitndzVO88Ty+Xt31kT3BZapPH5mMnmvTp4WG7R49XGVNossTanLdHluKg3H+8agkjK9OaakbsM4xXoKMYrQ8uVScn7wk0gVuagaQt7CpZIzu5qI9a3ikc8riUUUVoZBRRRQAUUUUAFFFKKAFFDUtI3Ss+oCqw6GjzDTKKZRIGGKXcPWo6NtICTNLUSnBpzN6daLAPopu7aBmjeKAHUUg56U9YyxwDSGhBVu2mHAHWo/svHWpIbfyznGazk00bxUk7mvbvujFWI5BGpzWdb5ZatbTtxXnyjqenGTsJNdHmqPnO2SelWtjbsYqrcYU4FawS2Mpye7GtKB3qs8xZuDxUTSFmPPFNya6lFI4ZVG9CRpT0pnmHNNoqjJscWp8cu01FRQClZl9ZC2CDxT/vdapxzBABjNOW5+bnpWfKdCmrallo1YYqu0C9qk87Oe4FQNMS3HSiNxyaI2XacU2ppI92SKj2mtDnYuTRvKtRSYoHdknnHrU9vePEwIOKq0VMoprUuM3F3R1NhrTqACxrUXVZH/iNcVbTFWBzWtb3W7GDXm1MPG97Hs0cXK1rm5Jq0kZGWqVNcdV+9WHNLuAPpVOS7CHArBYeMuhu8VOOtzqf7dYc7/1po1pmOd2fxrkGv2zjpU9tdFuDVvBxSvYSx8pPc64akXGc/rSDUiueawI7raMZzTJL7rzzWP1bXY3+tve50P8Aa3bOKmj1b/arjvtpZjirCXDFevFVLComONlfQ7RNYIAy1E2u/LjdXH/bmxjNQTXjepNYLBRbubvMJJaM3r3XN2fnzWBdas0jcHNVpJGcHJquxx1r06OHhHoeTXxVSfUjupmY53VUEnzcHmiXPOKaq4r0Ix0PHlNydy4rCQY70nk7WBzmoY5DG2an84MOlJlqSaJ4y3apfKYjOKZC3Tmr0fauabszsgrobCp24702RsKeKsfKpzVKaYBvas46s1l7qIWwfaoJJVTrUjtkEiqcgypOOa64o4py7DhdjPSh7sbcDg1V3Uu0nHFa8qObnZKspZhmkkX0rtPh98KdX8fzA2qC3s1/1t3LkIn+J9hXvGg/s7+FtJjje+efUrhRkhmCITgdhzXyObcU5Zk0uSvO8uy1Z9flXC2ZZxHnpQtDu9F8j5TjtZZuEjZvotQ32NOjL3P7lV+9u4xX2zDofh3w/C0FvptrFH/d8sE9PU1wHxDfwzqMZ02Sxt91xiPfsAPtX5vivFD3rYShp/ef6L/M/VMt8LKVVL65Xl/26l+bPkmfxrpFuRvusL037TtH44rTtdStL5Q0FxHKCMjawPFdX42+D+laDo88rOrtHJu2Y4xTdL0vwteeDYJHtbc3u3BYLhsc88VhhfEzFX5sRQTXk2v8z38d4S5Y4pYTEzUvNJr9Dn6KtqdNW32xbo9vADNkVGsME5PkXCu39xuDX6NlvGuVZhaMpezk+kv8z8mzbw9znLbypx9rBdY7/duQUq0ro0bFWGCOtItfd8ylHmi9D8zlGUJOMlZodRRRUEje9JS0lUUFO7U2igAopaeFHpQAzmnKoIpxGeKFXFK4CrxU9uPmzTIxlsHmrUcajkcVlJm0I3ZLH71PGu4e1QL8tOaQquBxWDV2dkXZal1VCjAq15f7vPes63ZmGTV1bj5cZrmmmdMGiGVscCs+4zuNXpWHPNULhsMTW9Pc56mxQopGPNC11nnC0UZ5opCCjFFFMdgooopDHKx9acqgnJ4FR07d8uKBom84Funy0nmrUNH40rD5h4GaCCOtSUjDIpDI6KKKAHJ97NWoZdhNU6nj6UmrmkHZ6FqS4LLVdjk06o2YLUxjY1lJ9QKg9RTlbbyKhaQ9uKbuPrVGPNbYuiZsdajd+5qsGI70rMWpcqK9o7FhGHBFXYHDLgnmsuI/NVyCQI49KmS0uaU5E9wxQHFVNx65NaEiiZeOhqlJDtXGPxrODRrNPoCtxzSPjFLHGW4Ip8ke1RzT2ZNm1qZskbKx44qOr/3veoZIdxGBiulSOOUOxWp6/dqT7McUzy3TnHFNtCjFrct2wzg1or8seaz7djuU1ZmnCrXLNXdjup6K4PcHacVQmk2tjrUgbdUc8O7kcGtIxS3MqknLYRLgMcY60lwp7DimxwtuGelSyMF+X1rUx3WpRMddl8N/h3d+PtYMEbC3soR5lxdOPljX/E9hXM2tr9suY4I2zLIwVQRxk1d/aG/aIg/Zr0O18B6dEr6tNAtxqFwOP3jjoD7DAr4rizP5ZLg/3CvVnpFfr8j7vgzhr/WHH8tV2pQ1k/0+Z7fqnxw8MeE7UaHptzHbWti3lbVYZZu7H1JNaXhn42WereWRMrLJwGzX5M6h8StV8U6o00Cz3N3M+7yoQWZz9K9V8G+PvF+h28Yv9IurZeudwLD8M1/KmJwWMxE3iKkryerP7Mw9PLaVNYajC0Y6I/Ty4uINT0x3LgOQSDmvnH4nXd5b+INMETf8vSbT/wACFcD4Z/aQuPLitbiZ1dsfLKhUjj3qzf8Aj4eIPFGjMRvh+1Jk/jXDCjKL95WZ1U6aot2d0aPxe8YSJb3cbNwX2gfhz/OvHrDxBdfY0+ZlQk8djya0vjL4hMmt39mWUfvCy7f0rzmHXobOELNJ8qjHXivUpUX7NWMalRc+p6Hp+sGaZjI+T1xmrN9rMK/vI2CD2PevBPEnxStdHZgs6jjH3q4i8+NxmZisxSNeFB7+4rrp4SpLU4qmLpRe59d6T4uDTCC5fcDwH7iurXDKGByDXyl4D+JkWpKjz3CjsK+h/BfiKPVIDAJN7IoK854r9j4L4gqUaiyvFu6fwvs+3p2PwnxC4WpYig85wKtKPxpdV39V1OooopG6V+3n82jaKKKsoKWgc1IBt4pACjApaKKkApUXcwFJT4fvik9hrcsRwgDPepV6DIqRPu80zpmseY7FGw9WDdeKnWNevUVREg3Y71M021eOKiUS4yVtSWa6WJcCoEuC3INVJH39aI5Ah9qpQSM5VLyLrSN61Xmk4x17U5ZN3vUU6quMdapJEyk2iDFJTqbWpzBTqbRQIdRRRSKCiiikMKKKKACir+l6PcatMI4VJNdrb/CHUJIUYq2SM1yVsXRoO1SVjvoYHEYlc1KF0cHRRRXScY2Qd6ZUjfdNR0CCnq5HFMop2BE+41E5yxptFIdwooop2JCiiikMM4qSOQqeajpCaBp6mtDLuXGean2h1rFjmK9elWork44PFYSpvodcKq6lossbY6etMkbf9KhkYyc1IqttFLl6mnNfQib0puacww1TWNvHdXkMU0wtoncK8xUsEBPLYHXFacyjHmZko80lFIg704puqLxbqek+EdSlsp7ueSVOVdYBsdT0ZW3cgjmp/D0cviiNH0xTdI2fnQYVcDJ3E/dwOea8ahnGBxLap1Vdb30f42PpMXw3muBjGdag+WWzVpL743GqNtEmGHvUH2hWUFXDA9CDkGo3mLcCvZjaSUkfNSk6bcJKzRPkKcZxUi/NVFX+bPWrkTj1q5IzhJN6hj8KR492DSyMBz0pfMGOKnUvTqb3w7t418baVI8fmrHMJNnY7eefbivkf486brHx4+PmozCPDNMyOVIIVFJ5ycD86+xPhjdRQeMrIzFVRlcbmAODsOOvQ5xzTf2cfhHH4q+Jutard2gfTpLuR5GYcPGhzs6fxMVHuu4V+EceTqSzWhTS+zp95/SnhnSowyjE1nvzK/olsYnwF/YVurvQILuW8/4R2ynXP22OENe3CHn5N2RGp/vck9RgdeG/bN+CXw9/Z10nS5UsdX1O9vUeaXVL2/nZIlUhckKfmYlugwBX6bsyQoSSqKo+gFeKftBeIvCmr+G5tM1fT7XWgMskMsXmMreq4+YfhXytP2NBp1NT7meJxOIfLTduyR+bvhfR47XXvDunvqMOuaD4itI7vTruNiWjWRmVCQwDI29SCp/WvqDw38HEsfCsWrXZ8kRMWHHUjjOa8++Hfwnl8UfErTb220pdG0HTZ1vJGPy5KcoOSTjOOp6DAr2L4leLrX4haEng3wVq9vHcRHyZZbkMiyHuFOOc818Vn1enUxKWG001PuMpjiY0FCuru+7WyPmP4qR6NeahLOJiJv8AZOSa8H8dxPDpRntX8yPs2OlfQ/j39lnxvY6aZ5L3TZJORtWZh+ZryjVPAuqeG/Dstr4jNnAJgRGEnVyQe4xRgqiUUnK5rjqSk7wWjPCY/C80bQ6hqM8OlWVwokS7vTjMZfaHBIOATnHGTivX9O/ZyuNYjkt01ZbiT7PFdJuSOe3nglBMcqMuMqwB9CK9c8OSfD74keBNJ0fxJZ2j6jp1utu8THy2IXgFD/EpwD3wc9DXceE7Pw94VszZ6NbrbxNtUkuXYhRhRknoBwAOBX3XtKHsPdXvHwFT28Kru9D4Y+IHwh174X3QukjdLYn/AJZEsn/AT1/A9K9E/Zv8WXtxrqJcu7q2EALE9a+pPHXh3TfFvh660+7RXjmQrnupxwR7ivk/4OaFL4a+J50mU7JLa5MZHrg9fxHP41z4Oo5Yqk4/EpL8ycRKM8JWU/hcZXXTZn2EvShulAoav6sP4oe42iiirAkTpmnU1fuinVABRRRQAVat4+M1XwKuW7BY+etRLY2prXUsDpTJBt6c0m+mvJ+NYKLudTkrFJs+YTQZGbqamlAbnpVf+Kt0cctBaKKKDMcGK9KTJPU5pKKCuZhTadTaaEFFGKKoABpd1JRQAu6jdSUUhigmpre0lumCxIzH2qJfmwB1r1D4Y+D5NSnRzjrXDi8THCUnUl0PRwODljKypRNn4T+GbhLqJ5bdse619Fw6UiwoPLHT+7UHhfw/Fp9qg2jIA5xXRbQO1fiOaZm8ZXc1of0VkuURwOHUHqz8+/L96aeDUhOKjY5NfvB/NTSEqKpaRl3UEkdFKylaSqJsFFFFAgooooAKKKKkoKRqDQ1UHS42nKxU5FNooJLkThhmpFkIBANUFJUjHFWo5Fb61LibxmOaQd60bGGwXS7i8nkluJYXAGn221ZJFIJ3Bm4wD6An2rOZe56VPot1YWt8kl9A1xbqCfKU4DNj5d3+znqByRXBjac54eUacmn/AHbX+Vz08trU6WLpyrQjKN9VJtR+dtbI4fxZ4s1u5s9z+EEi8PO2xmlcvMwJ525bO4c8heK5Dwx8ZdV8NRvo9lKttpdxHJBIsg52sCCSfWuy8WeEpPG2vG/1nUpZII2/0e1s18mOMdsdcfhj61U1n4T+GNWkWRIb20k/jMd0WDcdfmBP6mvxXGcK5vj5+3mr32UpLm+fQ/pfBcdcP5XS+p05Jd3CD5L+V9X6nmWk/E6/0W8jt4LpruBGJkimGVA9Ae34V6HYfFbS7hUE6SQMev8AEBXZ+Cfg18OdU0V/D+p29zpuozP/AKPrqTGQo54CyIeNue46V4P8X/hh4l+CviafSdai3QA/ubyLmOVOzD8K82tic/4ZqKk5vl6J6xf9eRtSocMcZ05VlTTl1a92S9bfrc9s0/WrDVF3Wt3HLnsrc/lWgkhU9K+So/EU1n80EzRt/smum8P/AB+1PQZVj1JP7StOnJxIv0P+NfY5Xx9CranmFPlfeO33bnwWc+GMqSdXKqvN/dlo/k1p96R9JmYnIIBpm49jxXFeFPi14b8XKPst8sFx3guPlb/69djHNFMmUdW9wa/TMPjsJioqdCqpJ+Z+OYzKsfgZuGJoyi15O337Groq3V1qFvFZqzXZYCML1z2r6d+DOlj4caXd2NzY3P2uGFHlnaMrHJI5LMAx4O0gZx0yK8L+E1sIdei1J9vk2ksbOWHq1e0ePPixDrUctpodq1wqcSXN0dsC/QDlq/B+O84wtPNoUp70o9Orl/kj+kvDbKMT/ZMpuN4Vpfdy6fiU/iZ8TrwWkhS7EcfRY4s4Ptxya848O+C7/wAXXB1DxDqMllpn3vstuMSv9T2rnNQ8R7NQlub24UsDgTSLgKP9lR0FZc/xkgkuoNLspWaHOHdj6/5/WvxzF5hicW37FcsfxP6Dhh6ODpeyopJvr1O3+IWn3+raSukaPbx6VoSjLpA2Gcert1J714trk3/CAK8ChpIiu3zEleNvqGUg5r6Yu9esdN8CLduqxRMMFuvavj34wG51q5itNNNxqV/cSkwxpyX4J4z2xmvHwdOpVq2ZssVGlRlpZL8fU53VfjBqPiaz1SKbV9SSw0zCLbmcN5hYgD5yNwA9Dk+9eZa5rP8AbsKwhHcLx87M5/U10Fn8K9Zs9H1ESmNZ7sl5YRklWByOfw/WuJWaXTdQmhuVMVzGSrRMeV9P8+9fbSoyppHzUsbHEaJkWmqulyC1u4mntHbI3ffi91Pb6V1dtrF/4Z2TW161zYdfMVslB/tKT+orIu7KDVLdDbcFTySc1r6TpKXFuIS2xzx9aI15QMZU4y0krnc6L8SXv1j811kQ8eZGeK57RbW2vfj+t1CysrIJG2nq4jrkta8Oaj4UlNzZ/wCqY5Mak7T/AIVa8N+KdPF9DqEZS11aORC3y7WbBxye4xkV9BleLoUcXSrzV0pJv7zwM2y32+Cr0sM+WcotLtsfUuaSmwyedEkg6Mob8xT6/rGMlJKS6n8Lyi4ycXuhKUDNUrzWrDT5AlzeQwuf4GcbvyrqPCUXh/Vtkt3qoWMn/Vx8MfxP+FfOZpxFlmTxbxdZJrotX9yPq8n4TzjPGng6Dcf5npH73+hkhTwAM1NBZT3TBIomkY8AKMmvT21r4b+H4vMmtklIGf30hb8etct4k/aq8NeF7eSHQLCEysvyi3jABP1r8zxHihhX7uCw05vzsl+p+o4TwjxzaeMxEYryu/8AIxdY0C78N2KX2sxPplqzKitONrMzdAFJyfrWt/YOjeHYBeeJtXht7YjcsNnKsssmemMZA/U18wfE346az8RtYjl1XbHFaA+TBG+VDH+I+9ZmkeMp7dbe4c+ZNAwaIucgGvJxHGmb4iFopQT7K7Xo31+R9xgfDnh/DSi6jlUce7sm/NLoj6s1C88IXenvJo8esfaTwv2xAiD35XJrCSRl4zXK+EfEmsapAk1yLPVLWQf6y3mIdD/tBgCK6jPfG32zmv1Th3FVa+HtWU297ys0/Ro/D+McBQweKUsO6SW3LDmTVu6lqPZm65wKaHNDNuptfWn54OZi1NoooICiiigAooooEFNp1NxTGOpp60UUwCiiimAUUVLbR+ZMoxxSeiHFXdibT9OuL64RYY2Yk+lfV/wd8EjT9JinuVxMRmuI+DXg+11BRNInK9B619DafZLYW6xooAA6V+U8S5w6n+yw0sftfCeRqlbGVNbliNVjXAHFO4opdor82P1jbY/PlqjqUjNRkYr+mz+QpCUjNtpaY2c0EiZJpKKKaEwooopiCiiigQUUUUAITSE5pKKB3CikJpNxp2EB604Nj2ptFUK5L55bg03NRbhTqVguOoptGaVguSRsY5Aw6g1698VvCtv8Zfgbo+r6moW9sXNu8iLywUcE/hXj6nkV9Cf2pp9j+zvYQTyBZJpHwvT5uea/OuNqcHgITa1Uj9U8O6tSOaShF6OLv96Pzt8cfDGPT5pZrG5H2XJOyQcjHpivLNY02S3YgnI7EZr6S8VRLDczbDvRjgZrkz4S0zXVlilbbLjK7fX/ADmvw1009Uf01zvY8f8AB80ej3RuJADLngE17b4a8Y/bGijtyTKeOteeal8M7vT5Gkh2y227AwctXovwd8HtdeILSJJEL7hlZOOh5xmvMxdOcU5rc9XBVY35JbH0t8OLTU7Xw/dQ3Cqv2pUwqj5wNw6n15/CvT/FzwaDo8awxKsSx/e/vHH61X03wreaTfWM2FaPgMCR3HpTPiu4Tw3dRFOYxyQM8+n0r4vlq16/tK7v6nvzqUqUYww9kvLQ+UfiH4pn1K9mgX9zGp+7GOv19a4nRr5rXVIn5J35Zjzmr3iW8i+3TAEBmONtZEUbNNGqjLtjOOor6SNJcumx5sqsnK7Z6R8ZPi7dQ+EtL0+z8x44+XCnvXiFh4g8RzeKLLUtLEsepWUqzw3RO7aw5B5yD+PGK7Pxtb3R0pAI/MVVJzjkH1rzHSrzWJLx44jIIx8p8sY/CtcJCNOPumWKnKfuvY9m1Lx58RNQiaeXRtFhupl3GaOJlVjnrs3Yz/hXhGsSO2o3txqySQ37SF3bH3mJ5PpX0R44vp9K8HWr2sReZIUI9en+NeC6hcXXiC6ZbyHa2cN8vPtXqSloeTTpqL91Fjwy0S2GBJ5jFsk/jW9GxilyOCOax9Nsv7PjUrwF5rTmulmUOpBxXmyjzNs9RSskmdhDeJq2mC2mwx7bq838XeGV0++ilhHz7gcY6jNdJp18scgO/A9KPEEyTL5mOQvBz/Ks43g7ouVpKzILj4z6/hLW3vBaLGojULGCeOByaS+8Y+KNQtXDa7eYYdInCdf90Vyd5ZhpFcDB9a17NmkRAoLsvURrX0rznMJJR9tL72fMRyTLacm/YQ7/AAr/ACMy3W8t7gvLNIztyWYkk/j6101j41udLi3NdLFsHPPJ+gqX/hEdW1zH2e08hGH+sm4x2rX0X4UQ2lwJb+b7XKBkr2H/ANavPcHW1qHpRqexXLTZy134o1XxNfKIYZpyx/dlwcH6V6z8OvhmPsf23XE825c5SEHCge/rW74c0a2juk/cooQcYUYrtlQLgD7vav0fg3J8NjMROrVjdQ6d2z8q4+4gxeXYOFGhJqVRvXsl29THu/Beh3xBm0q0cr0JiGaWTwXoE0Bhk0ezeM9QYhWzRX7e8Hhnr7OP3I/m+OZ45aKvL/wJ/wCZgaD4FtfDdw8unzzxQMcm3YhlA9ATzj610FSq3yYUZp8en3Fw2I4XY+wqMPhaGDTVGPKnqa43MMZmkoyxMnOUVZPrb16/MrUV0uieAdV1qYJHbsPqK6yb4D62Y1aGMux6jFRVzDC0Zcs6iTFRyvGYiPPTptr0PLqK9Mh+A/iJnKyW5Qf3q2LX9mzWZwCZlXPtXPLOMBDeqjrhkOZVPhos8bor1/8A4Zu19rwRAr5ZOPMNbn/DLd4sBJvQXxnj1rGefZfC16qNocNZpUvai9DwSivTNY+BGvaazbI/OVf7tcveeAtWsmIktpFI/wBmu+lmGFrK8KiZ5tbKsZh3apTaOborQuNDurcHfEwx7VTaGReqkV3RnGWzPOlSnD4kRbaSpAjHoKmSxlfotVzJbkxhKWyKtFasOg3E2MI1alj4NnmYZVqxniKcFds6qeErVHZROZjhaQ4ArY0nRpppl2ozEnsK9A0P4bvcsm5MD6V6v4Z+GttZojNEC3uK+cx2eUcPFpas+ry7huviZXeiHfB7TZbGzXzIynH8Qr19fmwc9qx9L0yOzjVVAGK1tw6V+PY6v9arOr3P3fLsL9ToRo3vYfjmlpFPvS15h6p+fRGKawz9afuFIa/ps/kVohopSuKSgyGsvemVLTWXPTigQyilKkUlMApM0tNPWmSGaKSigApN1DGkqhXCkpajfrVCHF6YWJpKKYgpQxFJRQA9X9afUSjcaeFx3pAOro/HN5dab8OtLsp2K+eWmWN+u3sQPTr1rnVOGB963PizMb+HSpWfdD9lWMMemQOcCvzXjirKOCp00tHL8kfsHhtQhPMKtVvWMdPmzwzVYxcK7MD7k96z9J02SaQ7RgGugvrdLlmRGyvsOBV/QdLWNypXO3+WK/EnLQ/o2xBoNiyzeXKu9CcdMivX/BPw40u7vYnEZhdsAyLwfr+dc3pekgTI4UAN+leteCE8lY/RTiuepK6sy43i7o9P0r4N3NxZosWqzLAR8vzHj3q7rn7PP9taU1qddmDlcBpE3D8a7LwTqwuLMBhhUGB6V2EZDDdn73pXPDC0J6tHLUx2Ig9JH58+Of2OfEeiazLIZobyEncs0eRnn07UeGf2YZ/tQe7k+ZTkqCMV996nYrfW7K43EDK/WuFeGLTdQKtGXyclgPetnh47dCoY6pLXqfN+p/s82clnKHaRVbjbg5PuTXl9/wDDvTvBd28KwLJIz7y23H419y6la201o0gAK7cncPu18vfFeFLbXggAx5ZP50oYeFN6Gv1upV0kzzjxPDBqHlKI1dSoGFHoPSuR1L4Y2l1G8sSeVLjk5+tdrY7WaZX+VlHB9K2LSzT7PuYYDAgY5Fa1KaehUKso7HgF38M71YXZSDzjaBXLXnhXVNJZx9naRG7r0r6I1ZoIQBDkE9j9azVtBLHhtjL1rH2MEbuvNng+jeENb1SfKWxjj/vSHAruP+FW211pYju7gtOedytgA13q2peRcHavSmS27b9jjknhhWfLGLvYp1ZyW557p/wl02EhbuWScZ4+b9K6bSvD9jouFtLdQF4DMM1uw6eZG6Dd0Zc4zinSKgBAGMetac3ZGOrepCsYbcCNgxx7VFFY5kGemfvVMp2yAitC2QFlyu3PGanme4WEv5P7CisPKUFLm4WN2kXI2n37V0I5GadqVqt14XeKYKjoQ0bN03A8fSoLWRpbeNmXY2OV9DX7XwDVhKhWhb3k0fz94mUqirYerf3bNW8yWnqu5gPWmqu5gK774d+Bz4gv498ZePPNfpuIxEMNTdSo9EfjuEwtTGVVSprVi+C/A8mtNGUQt68V794V+F0FvCnmwJn3Fdd4R8H2Wg2KJDAqHHXFdOFCjAr8czTPquKm403ZH77k/DNHB01KsryMrTfC9hpoBigRG9QK1VhReigfhS7qTd718jOpOo7yZ9vCnTprlhGw8KvpTtqjtUO6l3e9QaXRK2FphYU3dRx60BcRo426qD+FUbrQbC8Yma3Rj9K0OPWm7quM5R+FmUoQmrSVzlNU+GWi6lGw+zKpPpXlni74GxQ73tEyOuK9+3U2SNJBhhkV62FzbFYWSam2jw8bkmCxkWpQSZ8Xah4FuNPuSjREAe1a+j+EmkxmP9K+l9Y8H2epZJjUN64rOt/A0Vm3C9Pavrv9ZPaU9dz4j/VN0qr5dUeUaf4L+UEx/pXUab4RWPGUH5V6BHo0cOBtqf7IsZ4ArxK2bVKnU+gw+Rwp2ujF0vQUt8HaBXQR2/lLgCmKNtStISuOleHVqyqu7PpaOHhRVooljmCjBNP+0L61RZvekyTWFjpNFZx1BpftH+1VDOOtN8xfWpsFz4X2kfSinUn3TX9Jn8n76MSm7QacaKZJGy7abUtNKelBDiMqNhtNSlSKQjNBJFTWqQrim07k2GUUpFJTEI1JTqTbVCEpGXdS0UxDPL96XYKdRQIaFApSoalooARV20tFFABXoFtZW/iXwCLcRB7y3LYYjoK8/rq/h9rBsNSMRICSDBLHjHX/APX7CvjOLcI8Vlc3HeGp+icCY76nnMIy2mnH79vxPNrzw6dPkKyctklh61oabp4DhuB6n3rvPFXhtF1QuozG/O7265rNXS1WQBeMDJNfzi5vof1dYm0mx+XaBg4wK9D8OWRjRMfd3c59q5HTdscmcdz1rutFuFFqMeoGKybGemeF7iS1Kg/cHOM16VpV4txboT1I/wAivJ9DugsY5yq811mi6v5c3lltwzuGD0FOEuV3PPr0+Y7qePzIzzjiub1TR3mlaRl3ADj/AD/npW5aXgnIRTuOM9auSR74znuK9BR9oro85ScGeVeJLoWNlLznjLnPP0r5i+JF4l74iDFs8f8A6hX0j8Uofs8M8cfBIGW/EE18h+LtS/4m9wpGG31ipHqU43VxI1PmhV/1svB4rY2tBAf4lAHXgDrXOWt6ryRyK5ZlXGe9aF5qh643K350Slc3UWjMvbUySMSuGXOR1FUI1VVCkZBOM9MV0qQrLC/GCByf8/hXOXjCBsL+vas5SVrFomUJH82PlIzTZNvyktyOn+FV0uQ6uv4j2pRJvYDoOlYlk0cgfO4YJ4z71XuMFjnuefrSvIAVP8J6j3qF5A0nBpDQ2GLdJgHnPFbGnwmSQKRxkcVVtIRyzdjkVt6XHi7UH7rVIM1PE0YTQY7Vl+eRhhh/Ws6NdsajrxUviaRrjUrO3BOYRlwD+VRiv3jgPDuGCqVmvil+R/N/iViVPG0cOn8Mb/eya1jMkyqOua+rfgn4WOl6PHcuMtIMivmrwnoc+raxbxIjYZhyBX2p4R0ltN0W2hJ5VBmu3izF8lGNGL3ODgjA+0ryxE1tsbkbbeOnFS7vSo/LNKqkZr8klufuA4c0uBS0Y4qREbOB2pPO/wBnimPw5pu6teVEcxL5o+lJ5nXnFR5NA9KOUadyTzqTzKbtFG0VNl1GL5ppd+feoyKTB7VdkQ27koapFYNwag5pytUuPYpSJWjGOBzUEkeOoqTcfWmMxbrRFsGtCpJEOeMGq7dvrV4iq0kJ5I6VqjMr4NPK7FyaVVGc1Q1K8MYIHTFPd2IlKy1Fu7xY++KyW1T5jyKy728dmPJxWe07Z611xpaHnzr6nzARSEZqQrTCMV/QKZ/McojOlLu9qUik21oToG6kpdtID60BZdAppUU/bSUySGmMvcVOy5qOgyehFTakZfSm0yRlFLikpiCm06kYd6pAJRRRTJCiiigAooooAKPMaMEp97oOaKF61jWpqtSlTls1Y6cLXlhq8K0N4tP7j02xZdY8K2c4w0wG1s8nGTj88flWV5LLM4K8gVS+GuuJ/aGoabJjzHxKvP8ACBgD/PrWzfMsUkjddxPH8q/knGUXhsRUov7La/E/t/CV1isPTxC2mk/vRQjjEPBPLHvW9pN58wXOUY8f41zs2WZWY9BVm3uPJYKOp4FcZ2HpOj64Y1dM5ycc+wrYg14QNJg/d43DvXnNjfHzFjBAz19q3YJfNULu5bNSS0up7D4J8TC6vFjJyXIGfbP+NelnG32xXzNpOpTaLqEUsRICkmve9H8VWeo6LHcCdA2wBgTznHNehhaqimpM8rFUWmnE4X4rWvm2zOnJD7uPTFfFfjzT3j16XB+RuQw/GvsjxVrSavDMo+95fA+vb9K+YfH9ikfmv12n5f8AP41zqerZ3UotRSZ55p8xjZAD1BDfrzWw1wJFXIHPp24rn9PkUgjPRsVoxzARs3boKlvU6LHS2p8uBXHJYDNcf4ikEL9eR1/OtuPVo47EszBdp5rgb/Vv7W1C42NuToMVAJEtjqTyXBQDoa2o2O49hnrWPp9qLdcqckjNasTdM9OlO47C3DcHHBP86ns7fcpZuvX6VFDHumweR2rUt4QWwOmDSAmWPEfTnNbmhwZnDN9xSCKy0T5tq+vWtPVbv+x9DeRf9YwAX3JIGKqEXOSit2ZVJKMXJlSSRrzVbuXhsPtQjn5e1d34D+Hs/ia8jJRjFnmuM0OzbzIIVBc5AJ9a+wfhH4TTT9HhmJ+Zhnp0r+hKtX+wMqp0IaSt+PU/mKnQXE2d1cRPWF/wWw/wX8KbbQljlKDzByOK9IhjEKBQMCpFQKoAor8rxOKqYufPUd2fsuEwVHBQUKMbIKKKTIrkO4U0lIzcUz60EsZL940ynM1GOK22Rna7ALRxS036UtZFjqKbQoquVCTuBoxSnpTcEjJNTzAOxRkL2pvI6Ggml6jFOD0pKNwHSlzVK6E9RMZqN1qSkxmqJaK02VQisK+j3A+ldFNHlTzWJfbemacb3MJbHJXwCseKzWY5PFbOpIMk5rGbG416UdUeRUSufNrL+VRmrHWo2j/Gv3dM/nKxFtpMGn4pKu5m4jKRhUlNqrk27DA1O60EZpnPerJ0YtNZc0/71JTJaIaa696mZc0wj1oM2iGkxT2XuKbTuSNxSU+m4piG7aNtLRTEGKMUUUCsG2iiigLBRRRSAqafdSaT4z0y5RSVkOyQ+1enajCDH5nYr/WvOWjRbq2mc48uQN06Dv8ApXrVxapcaakgH7vAYAjnnmv5q4voewzirZfFZ/ej+veC8S8TkGHk3rG8fuf+RygLMy5pzZWTg5OeKvLYMW3AZYjp6dqG011fa3BHGa+NPuLD7GbY248nNdDpM2enzOTj6VzRjePKgHA7it7QJsMqMOnTHek5IXK2dV9m3x5J6DrWIdeutKvJIllZIsE7c9zXaadZm7jGBgVzvi3wlLuEgXIJyajcaaW5F/wkkfmSZf2PPua8h+ImrQS/afmXuRj6f/Xp/iS/n0Ka4QlssOOa8b8UeJp7qaSMMeSRWsYsHbdDINQEbON2Dk1eOqD7OEDc55rkreGV/XLEVrWllIy98dKuQITVNWlkiaCJuW4NQaPp7WikufnNaVppOJDIwzU1wuxgV4wakY+FguPXrVnzBjA5rNkkP3uhFXtOjNwyntSCxp2ikYJ962IVCwl6pQwnaoq+FMcZwM4qkQyzYjdIQPTpWX4sv/tfiDR9LQkcmeQZ6qBx+uK3NFtfOk3k9uRXOWsZ1D4harMcFLWJYVPuTk19Lw7hVi8zo03te/3anyfE2MeBynEVlvay+eh6X4Dt4ptYh875Vz3FfZ/hCOKPSYVi+6FGK+NfCFrPLfReVC8jbhjaua+ufApurfS4kuk2MF6V+ncWe9y6n5BwT7nNeO/U7CmU6Nt4yKDG1fmR+vdBjMeKa3FSbc0mwUE2IeWpwj9eak2j1opiImjpm0rVik4pisV6bViRAy1XxxmtIsTQUq05Yy3PapFjFEpdiYpkRpGBIGKn8kUeWFqOYuxBg0mPwq1gUjKKfMBWop8i8kg1C2a0TuZMUuBVeS6K8D86bNJ1AqhcS4zzVEti3moMq/e/WudvdROThqsalOdhNc/JudjXVTh1POrVOiEupmk781RMZzVto2xUHNd0Ukjgeu585EYpKlZajK461+3n88sYyelMK+oqWg807iIMUlSMuPpTCKoloZSU+mniruZNDPuml4pabtI96tMn1CkZd1KP0pcelUJoh2kUlTYprLmgz5SFk9KZUxUrSYoJIdtJz6VIy46U2ncQzn0op9FMBlLTqKBCAUtFO2GlcLCwxpLIqvjZkZz6Zr2jRLV5vDsaOoZ4xjnvgcGvGI1IavoD4VKut+D3ldVZ7U+U655PHyk1+P8AH2CvGjjYrb3X+a/U/efDTMbKvgJvtJfk/wBDlLfT5LeQ7j8y84/AYqzPZiQbuMjP866y60KFlUPlZMlTjoecdf8APes9tL3PKMZUkgEdvp+lfiTkfv0bHNyWSI6gDtVzTbMeaAo9zVy60uSMFsZNSaXCxmHGBu9KynI1ij0fwrp4ZYweuMnjpW3rmixXEHyjPaqnhSRfnPTsK6aRd8ee/XFXSkeVXk+c+Wfi14VEfnuE5BwP518yaroLNqDZHGa+5/ifpa3kMiqvO3ccV8qazZLDrEiso6/1r04NNFxb3Oa03w2GjDEYNbdroKRKSRkYyMVqWseFwBjbzippNqK/p2rKVjS7Zzd5bLDnbwKxJlDMeOvFbupMWyBWHLyvvWRvEoyR7eK2NCj+Ws9YTKwyOgrZsI/JT/PpSLlLQ1YtuxRnBpylt7KOeefzqqk23GPTNX9PtvtFxvHO4A4B/wA+1aI5mbenRrZ2cl452xxgsT+FT/Dnwiuqa15YX57yYzSe2TnH5U++t/N/s/R4QGuLlhJIufuxqck/ngV7T8HfAclnrS3jp+7UcGv03hinTwWFrZhP4to/qfknF9SpjsVQyynrG/NL9F+p6v4P8D6foVnGsVtGrYGWwM12lvarGvTiooVCBR0FXR0rxMRXqVpuU3ds+hw2Hp4eChTVkgX5enFP3+9Rk1G0lctrnbzWJWb3xUXm89ajZj3OaZv5rRRRnzXJjIT0NNLsOhpFpGqgHeYfWl8w+tRngZpvmClyphe2hNvNL2qNTTt1Q00O9ybjbTfMxUe4n6U0tj2oSuMlabHamtMT04qHJbvxQufrT5RcxI0h70m5iKTbuqRUpaRAZtZuxNO8gt7VOq7RTuKXMPlKMtjuqhcacWrdNIVFHOxciOUm0Uy5B/lVb/hFQxz2rs/JX0FL5S1XtZIy9hF9Di28M7VPGaj/AOEZX+7Xb+WtJ5aegrRV5dyfq8ex8I00rUmKTFf0Jc/l5ohKelNIIqYimlfWruRYiqNlx9KlZdtJVIkgxSVKy46VGVq7k2G7abT6KZDiM2im9KftpKtMkbupetLtpuMVVydwI9aYU9Kfmj6UyWiIqRSFQamppUGgnlIfLFJ5fvU3l+9JtPpQTZkRQj3o8s+tS7fajZ+FArDQMUVIF/Gl2j0oK5RgU/SvcP2Zbe7uta1GERGTT2gxMxPyqeqn6k8fnXj2k6bJq2pW1nCN0k8ixqPcnAr7S+H/AIF0/wCGnh/7NHJvuJcPcTtxuYDoPQCvz/jLF0KeBeGqfFLVfJ7n6ZwLg8RLMPrVP4Ypp/NbfqcprGitBcbAfl3ccf5+tZsdmFjAZQGUenfpn9K6vxLqFtJIx81VOcHBrgNQ1R45GkDh9uOvr6V/OMl7zsf09Sk3FXJp7aJY0WRgHIOM/n/WsdfLFwvknco9KwNa8QO3mF5dsig5HbmuGk8fz+H7wCcYTfknP8NYygz0IWaPo/QZWt4QT1xmugj11G4Y4wMGvJPBnxS0rW8olwokAAKk47Vp+LPE0WlwySo4xt9aIwl0OOpBOXvEnjbxJFFHcICrHB/rXy94pnR9Wd0x1P8AOtvxT8SDdXEqoxYf/Wrz241Jru48wnknFejTulqLlS0R0cNwME5x0qOa6/dYzzWK16yt16HNHmPJIMnApsBbptzcc564rPuIwIyTxWheSRW6j5h69axdS1ONgEjIYnpioLLMJCsOOtbEcYaEnGOBWTpts02xn4J5/Wt+DbCAjcAt830qkiZMZ9jkWTGMFVP+f51reH1FpMPMO0L61V+1P8wVQdwK7j6GrNlaSzMpbqRjH9KsyN74F3Q8X+IdV1qUiRZbhre2B/hiQ44+rAmvsXwnZrY2aBQPWvkPwHGvw/mhWGLFmzs0fH3QTkj8ya+rPh/rSa5p6SqeMCv1XE0Y/wBm0J4b4OVff1/E/HMPWlLNsRDE6VOZ2/w9PwO1jcyLnGKtwvgYJpkEQ8vPSnV8nJrY+zirD2YYqEjGadmmOeKheRQlNAWk59aK3IbH7himbj9BSH6UGkHMObLDFIseDnNAp9MkKKKKACm06g0D1GUKT+FBpvHrSd+gKxKvtUqvVXzKXzDWfKzW6LXm+uRTGuMGq0k4Uc8CqkmpKnpTUbkymkaom96XzvesJtW54o/taq9mZ+0N/wC0D1oNwPWsH+1Qf4sUNqCt/HUuBXtDXa8C96Z9sHrWHPqAXoar/wBqN/eq1TbM3WSPkXikNO2+1JzX9BH8x+o0im0+kIqjNxI2X8qjZcdOlTUhWrTIsQU1lzUxUH2pjLtqibERUimkVNTSg7cVVxENJipCp9KTbVXI5SPbRin4NJTuLlGbabg1IVpKvmIsxm6l+lKRSbaq5OjDaaTaaXBFJzQKwbaMUc+tFMfKLj3o20lGaB8p1Xwvnjt/H2iSynEa3UeckAdfWvc/jp8RpPDt2bKKQqVUE7T6186eHobibVrVbSNpLoyr5aqMktnjiuq/aqvls/HMUU0gEsltG8ig99vP65r8V4/pp1KMr73P3bw1l7teDXZmNN8Xrhrks7+YhcbsnoPQCmzfE5Lxm2Fk4yN3+fpXkn2/qEHHvjrU1pa3125Mdu0aEcPJwDzX5phcur4x8uHpuXoj9jxWYYbAx58TUUF5ux3+seLDJGShZ2kzu9uen5VxniC4m1GNiMkhdp71ah0G7bma6VfZFzj86tw6DAv+sZ5j/tNX1mG4KzSu/fioLzf6I+NxXH2TYVe5Nzfkn+bsjz6zh1XSboz28/luDuADV1Vx8R/EGoWRt54jO23G6u20/SIUsZfs1tG0+087eFHqTXLWchsZpFiiW4umODJIcjPoAP515WcZK8nnGnKfM2e5kWfRz+lKtCHKl3OP8++uH2ta4dugJ71z2qeLLfQbhkvZY7dlOAGau61q9OjtLdzlXn2nG3jbnivm74maq2o3eDgnmvnVOV7H1ThFK56d/wALQ0qRh/xMLUeu5iP6VsWPiq21VkW31KwLehuVXt7kV8xW9sHUEirf2cqu3HFbxjc527H1FN4P8Vala/arWxa9tTyJbSRZRj1+Umse30y5s7krdRSwyL1SRSCK8P8ACuqanoWpwzadqF1Yup4a2lZCPyNfYfw/+JmoazpMcXiC3s/EMJQKTeQjzf8Av4MNn3Oa9jA5LiMxbjh2rrueFmefYbKYqWJTs+xyFpK25QOCB+Va0K7udwBA5U12t14Z8Jas2bVrvQZiOPM/fw5x7YYfrVR/hxqnLWElnrEYGQbWdfMx67Gww/KpxeR5hgv41Jpd7XX3ozwfEOV5gv8AZ68W+z0f3OxipGnyk/pWzp0kagBhyRgHNY11a3WlybLy2ntpAcETRle3vU1jdKWAJGFOeDXhyhKN00fQJqSujur2ZJ9Bxt+ZGXDAdK9u+Bt066aqOy47ba+fWn8yyWBMAud22vWvhDpd3YyRz+cTET93NfrGU0b8PJSe8m0fiedV3Hie8I7RimfSEMh2VJu3VSsbgTRqOpxVzGBXyE1Y+6g+ZXA9KiZieKVyeKaKmKKewppMmkLUVqZhRRRQA5aXcfWmdKje4WPrzQImZqi83bVG41IDocVm3GrbSfmqlFszlUijda5Xd97FNa8Ve/61yk2rk9DVf+1Hz1rVUZGTxEUdcdSWk/tBa5P+0ieeaVdRYHqar2LI+sLodWt0rnrRJeBFIBrljqTeuKP7QZlxup+wYvrCNO+1LGeTWRNqDtzmoJpi3U1Wdtw4rpjSSOWdZssHUH/vfrSf2g/96s+RetMxgVr7NGHtGan9ov3al/tFvWsbcd2KGZuxp+yQvatGvJqDEHLGofth9f1rM8w+tG+n7Owe0Z4TTWTg1JtpCK/Y7n4KVitNxVhkzUTxntVpk2GEU3FP9jSYqjNxGYppWpNtNqrmbRC0fpTcVPtpNvtV3JIaQqDUjJ6U3aaYrEWw0hU+lS4op3EQ7aTaanpjL6VQiHbRtp5FNp3J5RtJTiM02qM2hrdaKdRVcwtUNxVmx0+fUrmO3tonnmkbaqRrkk+wqOKJppFRQSScYFe/eHNN0f4M6PFc6i8T+KruHzUiYgtbIR0A9cHk/hXzOfZ7RyPCutU1k9l3f+R9Zw5w9ieIsWsPRWnV9kQ+G/Cdh8G9AuPEXiBov7ZEZMEJOfswx94/7Z/SvlTXtUv/AIxeObrWbu4kjsYTsUdWYfwrk+1a/wAaPiveeMdWmtlume2U5YZzn2qXwzpo0vRbaED52XzHP+03J/wr8hyDD1eK82ljsw1jBbdPJH71xK6PAuRRwWX6VajtzddN3/Xcls9BsrNgyQguOjPyR9PSr20elO20u2v3uhRpYaChRiory0P5jxGJr4uo6uIm5SfVu43aPSk207FG0niui5y2aOgt/Li8O3K79rMOi/eavK7rUI9FaU7maU89eB7AV6pp9mJtOkBPbkgcV4142tbdrtoGkCEk9T82P6V+K8YUk68Z3P6K8P6zWElTscb4u8SSXiYLcsc8mvG/FUZE25s5PrXf+Ipre1m2RsJM8DH868/8UXCyS46kV+aOK6H69zOxj2aBpFFb1vZqqnIyMflWPp4HmKTXTw7XhBXrj8q0iYSIrG3EN5G2QRnqRkV9IeAUSTTYmULnA5X6V86wL5cinque3FfRfw1VX0mIjpj+lfpXB8/9pcT8o48p/wCxqZ26rhRzSjg5BIPtSqpOOK6Hw34Nu9fl+UFFH94V+yVa1OlHmm9D+e6NGdaajTV2VNN1LVJYxaxu11b4x9nmHmJ69D71fk+GknieL/QtLk0m/JwskJzbt/vKeV+oP4V7J8P/AIXpYMHuEDN9K9h0vw7bWKDEagfSvynPsVl2Jco+yTfdaP8AA/aOG8LmuEUZe3aj/K9V+P6H5p61qniT4b/ElLPxDbeWtuvltCjZWRM5JB9a+5vg7pum694YtdT0y6S7tJlyGQ8qe6sOxHoa85/bi+HsN94TtfE8EA+02ThZHUclT6184/BP4v618M9ZhvtMlL2zsou7Fj8k6ehHY+jdq/NMPmmIwdN4ST9y5+zYjI8LmnLj6cbVLW9fL/I/SKDTzbY2npUuWH1rL8FeN9N8feG7XWtLk32045RvvxsOqMOxFaztntXoxn7RX3PAnTdF8jVmiNv1ozihiKa1WZXBqSl3VFJIEBoC5Jk0m4jvWbcahs71UOsHn5uKtQkzJ1Et2atxccdayby6xnmoJNU3Z/nWdc3W/JLVtGmzCpV00G3V02eDWfLMc8mnMSeTVaVhmuyMbI86cmP84mm+YaYKQsBxWiizIl8xvSn5NQq9L5gquQVyRnKim+dz1qOSQN0qBm54NUohcttMPrUfnH6VX3YprS+lWok8xO0m7rTGOe9ReZSbqqxPMyTgU1qbu96TdTsTcCaTJopKBniVFOpCK/WT8PGbaSn0hFO5NiBo+c0wrg1YpCu6qTJK1JipWj9KjI28VdyWhpFJT6TFURYYRTak20lNMixGy7qYV29al20lXcmxFRUmwUw/L14pisMZd1MZfWpaKYiDFNxUzL6UzbVE2GbRRtFO20badw5S1pN4unalbXLJ5ghkWTYf4sEHH6VH8dNSuBp3iPx4ly8194jv/wCzdPhYc2duiqzKP9piQOOy+9RballuHnt4IJSJYbeb7RFHIAypJx8wB78D8q+Q4hyCGeUopO047Ppbrofe8JcUT4ZxEpuPNCS1Ste/TU8X0XQnuvFMlgWaTyZikrN6KfmP5ivYFXbwBgdqYtjbR313dx28cU91IZZmjULuYnJP51NVcOZJ/YmHcJu85btF8ZcTLibFwqU4uNOCsk97vdsbRT6XafSvrbn5/ZEdLtNP2n0pyrjrSuOx0tjNHBoczOVzswPlzXzp4wt2utUuGLeWjMevGfrXvUO2a1ZPuZH3s814L8TdNmh1GVlJ2Hqy1+ScW0JXjPofu/AWIj7OVJbnlHijybGViZd7/wAvc155ql55kwOcCut8VWpjbk4B5Oa4i6XzGH14/OvzCSsfsd2XtOkLOK6a1Yr061zWlwlZgOoNbyXCwsCxxVRV0SzZsoPNnj9zX0d8P7NbfSYtoxwCfyrxj4e6H/bFzG7KTHuHIHevojRrEWFmkYGAB+VfqvCOBqQk8RJaPY/FeOsxpVILCxeps6SqtfRBxwTX0L8P9Jjkji2qB05xXz9o8fmajAvX5hX1X4A0wRabA/T5RX0HElb2dNa7nx3CmH9tWemx2GnaesMYq8XOAOBTFcKoxSbs1+TSk5O7P22EVFJI5v4oeGh4y+H+taUyh2kgYoMfxAZr8sZo7jRdYu9LIZZY3ZN2PukHAzX65q/Xv6g14ve/sreC9Q8SeINWuYZnOqhGEStt+zsCSzKe+T6+leRicLKpNSgfT5bmVPC03Cr8jnP2N9A8T+H/AApqA8QWMlpHceVJAzEbZflJ3qM9wV5r6I3bvrVTTrKLS7C2s4QRBbxLEg/2VAA/lU7NtBNejRp+xgoHhYrEfWKrqNbg3y81G0+OpqG4uOOtZV1feX0NdMYuR58pKO5qNdBapXWodfWsmTUix5NVJbzdxnNbxpHLKsuhZup2Yk1RaQjvTWuGaomb1NdcVY45SuOaQ+uKiaakZutRsQVzWyiY8zCSYY9KiVRJnkUj4zTFUr3q4xJbF+7xSFqezg9sVXZs1pYzbJPMFIWFQs1Jv3d6ZF0TbhTNwqMt6mmNIFHFA+YmLVC7UzzjTWbd0plbjvMx70ecajoHWmRYeGO7rxTt2O9MoqLiJPNNHm1HRRqNI8eIpKkxTa/Wdz8UsxlIRipCtNI9aCWhlN20/bSUyRlRvHu6VPTdtO4rFYxkU2rRWo2j3dBVqRNiGkqTyzTSpHaquTYZikp9JiqIcRm2kp+2kp3IsR7abtqTbRVXEQ0m0elSlaQpVXJsR7RSeX70/bSc07isMMdJtNSUUwIwpzTglOoouAmB6UtFFK4BRS9qdtyPekBZ09QzYY4z0CjJrzP4uSJbOwVNzEfxHBxXp2lpuuOSR2rxz4xXIm1cRbwozgK3f3PtXwPFjSwh+qcCKUsZ5Hg3iKVruRkaMKB0I5rkJ7XypsGvSNYt0klChU2Z+ZlNcHrS+XebAMf/AK6/Fm7n9CuNhsO2PHqKW9n37QOCT+tRKCkZYDJHNVrOb7dqkUB4BYV0Uo3konLWnyQbZ9N/A+xj/s2NniaKVhz3B/z+Ve+aXoqXUYXHJryT4T2Js9JgU/dI4Pcexr2rw4T5ic96/fcFF0MFHl00P5gzKpHE5jPm1TZ0fhP4fj7fDK43BWzX0Vodqtpaxoq4GK8+8IKDsOO1ek2TfKor8+znF1MRUSm9j9KyHBUsLT5qa3Ly0maTdTGbFfMn2I/dS1AZDn2p+4YpEyY5iFqvNJUp+Zc1nX0xRTzVRXMzKT0uVry6EYPPNYN1d7mNF5cMzkZqjIxbFejCHKrnmVKl2K0wpnmd81G5HGKbWy1OW9x5mNR+cehptNNbKKJJPONNaX8qZuFMZt30qrE3FaQmkDGkpM1ZLHNIKhLcU2aTtUO/irSbM7j2Y7ai3Fe9LuzSMatR7iQMxakoopWQxKKWioFdhSrQPWlqWyhaKXFLUjURuDS0tJn2oKSseQlStJRRX6qfiwdKaw3UUVcSWMpKKKszDbSbTRRSJEpuMUUVSEJSFaKKYiNo/bmosEUUVSJYUmM0UVZNribaNpoopk2ExTdtFFBmJSbaKKtMQbabtooqhBto20UUAG32pQlFFADgKKKKQFi1laNjsOGPevAfi14h/s3xM8TW0bykcO68L+J9qKK/O+MP91Xqfrnh9/vU/Q8h1zxZHcT4jBKDlnHAP0Fcde3hurwHPJoor8cP32RcVx5Qz97tXVfCjw1DrXiAC5ttyE/K+OAaKK+gyanGpjIKSPl8/qSpYCpKDs7H1v4f0dNLtkjUcKOM13Xhw/vU+ooor94rxUaNl2P5koTc8RzS3ue4eESPKTiu9tWPFFFfj2YfxWfumV/wkXww2jnmmHmiivHPd6CNS0UVJmLnAIrK1JS0ZxRRWtPczn8JzVwvznNVXoor0+iPHnuV2+XOKaGoorWBCAketQyHpRRWqJkNpKKKpEMTJpKKKoRDIDmmYBoooTMhClJ5Z9aKK3WxQ8Q+tI0YHFFFZvcVxhUr70KhbpRRSK6Evk+9L5Y9aKKzEDLtpAM0UUjUeFHpS7R6UUUAf//Z;movable=1;resizable=1;rotatable=1;deletable=1;editable=1;locked=0;connectable=1;" vertex="1" parent="1">
          <mxGeometry x="103" y="1311" width="276" height="155.16" as="geometry" />
        </mxCell>
        <mxCell id="B0hOVwlSUektJ_psYXs9-3" value="&lt;font style=&quot;&quot;&gt;&lt;font style=&quot;font-size: 18px;&quot;&gt;Rescaling&lt;/font&gt;&lt;br&gt;&lt;/font&gt;" style="rounded=0;whiteSpace=wrap;html=1;fillColor=#FFE599;strokeColor=#000000;strokeWidth=1;movable=1;resizable=1;rotatable=1;deletable=1;editable=1;locked=0;connectable=1;" vertex="1" parent="1">
          <mxGeometry x="450" y="1260" width="100" height="260" as="geometry" />
        </mxCell>
        <mxCell id="B0hOVwlSUektJ_psYXs9-12" style="edgeStyle=orthogonalEdgeStyle;rounded=0;orthogonalLoop=1;jettySize=auto;html=1;strokeWidth=2;entryX=0;entryY=0.5;entryDx=0;entryDy=0;exitX=1.005;exitY=0.269;exitDx=0;exitDy=0;exitPerimeter=0;movable=1;resizable=1;rotatable=1;deletable=1;editable=1;locked=0;connectable=1;" edge="1" parent="1" source="B0hOVwlSUektJ_psYXs9-3" target="B0hOVwlSUektJ_psYXs9-2">
          <mxGeometry relative="1" as="geometry">
            <mxPoint x="756" y="1109.9999999999998" as="targetPoint" />
            <mxPoint x="550" y="1330" as="sourcePoint" />
          </mxGeometry>
        </mxCell>
        <mxCell id="B0hOVwlSUektJ_psYXs9-6" value="" style="shape=image;verticalLabelPosition=bottom;labelBackgroundColor=default;verticalAlign=top;aspect=fixed;imageAspect=0;image=data:image/jpeg,/9j/4AAQSkZJRgABAQEAlgCWAAD/2wBDAAMCAgMCAgMDAwMEAwMEBQgFBQQEBQoHBwYIDAoMDAsKCwsNDhIQDQ4RDgsLEBYQERMUFRUVDA8XGBYUGBIUFRT/2wBDAQMEBAUEBQkFBQkUDQsNFBQUFBQUFBQUFBQUFBQUFBQUFBQUFBQUFBQUFBQUFBQUFBQUFBQUFBQUFBQUFBQUFBT/wAARCAE4AisDASIAAhEBAxEB/8QAHwAAAQUBAQEBAQEAAAAAAAAAAAECAwQFBgcICQoL/8QAtRAAAgEDAwIEAwUFBAQAAAF9AQIDAAQRBRIhMUEGE1FhByJxFDKBkaEII0KxwRVS0fAkM2JyggkKFhcYGRolJicoKSo0NTY3ODk6Q0RFRkdISUpTVFVWV1hZWmNkZWZnaGlqc3R1dnd4eXqDhIWGh4iJipKTlJWWl5iZmqKjpKWmp6ipqrKztLW2t7i5usLDxMXGx8jJytLT1NXW19jZ2uHi4+Tl5ufo6erx8vP09fb3+Pn6/8QAHwEAAwEBAQEBAQEBAQAAAAAAAAECAwQFBgcICQoL/8QAtREAAgECBAQDBAcFBAQAAQJ3AAECAxEEBSExBhJBUQdhcRMiMoEIFEKRobHBCSMzUvAVYnLRChYkNOEl8RcYGRomJygpKjU2Nzg5OkNERUZHSElKU1RVVldYWVpjZGVmZ2hpanN0dXZ3eHl6goOEhYaHiImKkpOUlZaXmJmaoqOkpaanqKmqsrO0tba3uLm6wsPExcbHyMnK0tPU1dbX2Nna4uPk5ebn6Onq8vP09fb3+Pn6/9oADAMBAAIRAxEAPwD7bpGPFLTW9cV9afCDAxHvT1YGo6KkZNT1X1qJD2qVDxUmiHUUUVQmOWo/m39afuwKYXG4mmhSJEcsOaduqOP7pqRaBrYNtG2nbTTgh9KVx6irVmOolXFTLxUFj91Opo5qWNMsKzbsihVjJq3GpVaake2p0SudyvuWojl6U6nBcUpXisJWOiCsQ05aGHNC9aA2ZJSbaWnbu3apNNyvJVSRauyVSmPJraJhIhY4FVLnOzFWpD8tZ95MFU89K66aucs3ZanK6+rKGIJryzxTdbAwY16T4i1IQq27pXj3jC/W6kIjPevvsnpttXWh+cZ5WjGLSepyM7B5SR0plLSZr9BVkrI/Lnq7sueTmNcVWkj2tVizctkE8Ul6v3TWcfisbSScboq0UUVsc45elLTadUMBNtNp5plCGhyfeqSmR96fSZQq0tItLUMoKKKKQBRRRQAUUUUwFpQabTlpDRatztXNW9ysBkVRgyO1TMaxktTsg9Alf0pjSU1s56U2rSsjGUnckUk9adSL92lpgFTKowSTUO0npU6xk96zkbQQzd82AKkWMsuSakVQvbmlk/d4rK5rYptwxqKQgc1anj/iFVJlNbxd0c1RWImYn6U1qdtPpTWXHNWjAbS7TSE02qJPrcwim+UBUzMKacetfhx/RHMyEwqaQ247GpsUu2gFJlfydnPWlVehzVjGeO1N2YpNGkZDKXaafgU5cUja6I2j3DHShYB35qbFFUOyGhNvSnqPakopDHUu6mZ9qTkUrGfMWFxUq1UWSrKSZqbGidyZV9asRjtVdalWTpWErmhbWplbAqqsnrzTxKK57dy1Is+ZTvN3cVV8wUGQLzmlyovnLDMBzUfnCqz3A6UkcmetHIHtOxdV91P3CqwYdqRpqTiaRloSStVKRs1LJJ1z0qpJMB3rWMTGUiC6l2qTmuV1vU2hRsGtvUbhdpwea4HxFdMQwBr3MFQ5pK54GPruEXY5nxBr7TB1f6V5nqlyWuDg8Guo19iuTnvXGXBLOc1+o5fRjCOh+P5piJVJ2kMP3c03FO7Uq9QK9k+eJ4CYYy3eiaUSqp71EzHkZ4pox+NSk9zRuysK1NpSc0lWjIKWkpaYC9RSUvSm1CGiUDFLSL0FLUlAOtOpo606pYwooopAFFFFAwakWlopiCrMKgrVarNv938allw1ZZhh3MKtNb46CnW67cGrSsO4zXFKbuenTpqxmSW525NV2jrWuIjt6cVTWEbuRWkamhnOnZ2K6oW4AzU0dqW5bir8FqpGelWBAi+9RKt2NI0epSS2GKZIu3vV5tm3jg1n3bAdOKiMnJlTiooZ5o/Gms5Y8nioF+71p3PAro5epzcxNu+Uiq7EZJp+Krz547CqiTN6DJZieBwKh+ppTTTWyOS9xM0UUVZB9cUU1qAa/DT+hx1LuptLSAdmnCo6NxoKuPx6ULxSb6XzKC1Ow6lBpm6kLHigp1CTjuaQso71EzH1puTT5SOZkhkHao99N2n+9TFG41ryognXrkVYjkqsrbad5gHJOKyauaxnY0FkzUgb3rLFwq/xUDUNp55rPkbNfao1d/vS+bjvWZ/aSmj7cPWp9kx+0iaW/wB6PM96zhd7j1qeO4TjLc0uSw1NPYtKd1TKcYrPkvkj71G2rIpxmpcJS2K9pFbs1fM9KY04FZcmrJtyGrKvNeEefm4+tXDDzk7Gc8TCC3OguLoKpJqjNeoy9a5hvEyM21n/AFqvca4qrndXoQwU+qPOnj4O9maWoXPXBrk9WZcMzHjFJfeKIo1JLc1w2veJHutyo3FfR4LBVHJaWPlswzCnGL1uZ3iK486Zgh4zXMSJ8xq/PMGzu6mqLV95Rh7OKR+aYmp7WbkQnjikpWpK7UeeL/DSUUU0MKKKKBBS0lFADmptOFNNQNEo6UtIOgpakYUoakooKAk59qVaSigQ6ikWkqbFC7qN1HFJTEKKuW/QYqlWjZqpAzUT0RtSXvGhEMIDUsZLNikVBtAqa3iy2T0rzpM9WEXdEzwmSMAVXltCvJrRMoRMDiqUl0OcnNZRb6G84x6kKttGM4oabaM5zVaSYGomcY610clzl530HyXnpVSSbc2CaG+tMbacE9a6IxSOSUmx4H5U9cVVeUhsDpRG7M3Jq2jNSVy6Kq3HT8atZ2xnHU1VkU4OamBpU+EqGm1Iyle1MIxXQjjYlFFFMk+mF8TwNjDVPHr0D4+cV4JH4kmDfeP51ch8WTL1Y5r4OWRvofpsOIovc95j1OJv4hVmO4V+hrw228bSRkZc10Ol+OPMwGevNrZPVpq6PUoZ3RqOzPVd1G6uTs/FSSKAWq5/wkUWOWzXkSwlSLtY9qOLpSV0zotw/wAilyDXNN4hiz94Uf8ACQR/3qPqs+xX1ul3Om3L3NNaZelcy3iBMZzzULeIFbvTWEn2E8ZTXU6V7gZqFrr3ArmG14En5qi/toHjNbxwkznljodGdQb4f3qFuh/erlW1ZfWpI9VGRzVvCtakLGpnVfaPQ5prS+pzWJHqIPG7FEmoDHXNY/V2b/WE+pqTXSpn1qhNqgXI3VjXmrBc81g32uAZw1ehRwcpHn1scqfU6x9cCd/1qnN4mEfO7j615/f+ICufnrGuNckkyFY5+tezSynm1Z4FbOuXZnqn/CZqp5kpV8dIGA3145JfTMclyBSLqDhvv12f2NTsef8A6wVbnsNx4y3chs1Ubxdv43YNebw6lIy9eaj/ALQkWTJP60o5TTiOWc1Ja3PTf+EkYrnfkVl3niBpFPzVyMd/JtHzVDJdSYyTxVwwEIszqZpOSsbFxrUitndzVO88Ty+Xt31kT3BZapPH5mMnmvTp4WG7R49XGVNossTanLdHluKg3H+8agkjK9OaakbsM4xXoKMYrQ8uVScn7wk0gVuagaQt7CpZIzu5qI9a3ikc8riUUUVoZBRRRQAUUUUAFFFKKAFFDUtI3Ss+oCqw6GjzDTKKZRIGGKXcPWo6NtICTNLUSnBpzN6daLAPopu7aBmjeKAHUUg56U9YyxwDSGhBVu2mHAHWo/svHWpIbfyznGazk00bxUk7mvbvujFWI5BGpzWdb5ZatbTtxXnyjqenGTsJNdHmqPnO2SelWtjbsYqrcYU4FawS2Mpye7GtKB3qs8xZuDxUTSFmPPFNya6lFI4ZVG9CRpT0pnmHNNoqjJscWp8cu01FRQClZl9ZC2CDxT/vdapxzBABjNOW5+bnpWfKdCmrallo1YYqu0C9qk87Oe4FQNMS3HSiNxyaI2XacU2ppI92SKj2mtDnYuTRvKtRSYoHdknnHrU9vePEwIOKq0VMoprUuM3F3R1NhrTqACxrUXVZH/iNcVbTFWBzWtb3W7GDXm1MPG97Hs0cXK1rm5Jq0kZGWqVNcdV+9WHNLuAPpVOS7CHArBYeMuhu8VOOtzqf7dYc7/1po1pmOd2fxrkGv2zjpU9tdFuDVvBxSvYSx8pPc64akXGc/rSDUiueawI7raMZzTJL7rzzWP1bXY3+tve50P8Aa3bOKmj1b/arjvtpZjirCXDFevFVLComONlfQ7RNYIAy1E2u/LjdXH/bmxjNQTXjepNYLBRbubvMJJaM3r3XN2fnzWBdas0jcHNVpJGcHJquxx1r06OHhHoeTXxVSfUjupmY53VUEnzcHmiXPOKaq4r0Ix0PHlNydy4rCQY70nk7WBzmoY5DG2an84MOlJlqSaJ4y3apfKYjOKZC3Tmr0fauabszsgrobCp24702RsKeKsfKpzVKaYBvas46s1l7qIWwfaoJJVTrUjtkEiqcgypOOa64o4py7DhdjPSh7sbcDg1V3Uu0nHFa8qObnZKspZhmkkX0rtPh98KdX8fzA2qC3s1/1t3LkIn+J9hXvGg/s7+FtJjje+efUrhRkhmCITgdhzXyObcU5Zk0uSvO8uy1Z9flXC2ZZxHnpQtDu9F8j5TjtZZuEjZvotQ32NOjL3P7lV+9u4xX2zDofh3w/C0FvptrFH/d8sE9PU1wHxDfwzqMZ02Sxt91xiPfsAPtX5vivFD3rYShp/ef6L/M/VMt8LKVVL65Xl/26l+bPkmfxrpFuRvusL037TtH44rTtdStL5Q0FxHKCMjawPFdX42+D+laDo88rOrtHJu2Y4xTdL0vwteeDYJHtbc3u3BYLhsc88VhhfEzFX5sRQTXk2v8z38d4S5Y4pYTEzUvNJr9Dn6KtqdNW32xbo9vADNkVGsME5PkXCu39xuDX6NlvGuVZhaMpezk+kv8z8mzbw9znLbypx9rBdY7/duQUq0ro0bFWGCOtItfd8ylHmi9D8zlGUJOMlZodRRRUEje9JS0lUUFO7U2igAopaeFHpQAzmnKoIpxGeKFXFK4CrxU9uPmzTIxlsHmrUcajkcVlJm0I3ZLH71PGu4e1QL8tOaQquBxWDV2dkXZal1VCjAq15f7vPes63ZmGTV1bj5cZrmmmdMGiGVscCs+4zuNXpWHPNULhsMTW9Pc56mxQopGPNC11nnC0UZ5opCCjFFFMdgooopDHKx9acqgnJ4FR07d8uKBom84Funy0nmrUNH40rD5h4GaCCOtSUjDIpDI6KKKAHJ97NWoZdhNU6nj6UmrmkHZ6FqS4LLVdjk06o2YLUxjY1lJ9QKg9RTlbbyKhaQ9uKbuPrVGPNbYuiZsdajd+5qsGI70rMWpcqK9o7FhGHBFXYHDLgnmsuI/NVyCQI49KmS0uaU5E9wxQHFVNx65NaEiiZeOhqlJDtXGPxrODRrNPoCtxzSPjFLHGW4Ip8ke1RzT2ZNm1qZskbKx44qOr/3veoZIdxGBiulSOOUOxWp6/dqT7McUzy3TnHFNtCjFrct2wzg1or8seaz7djuU1ZmnCrXLNXdjup6K4PcHacVQmk2tjrUgbdUc8O7kcGtIxS3MqknLYRLgMcY60lwp7DimxwtuGelSyMF+X1rUx3WpRMddl8N/h3d+PtYMEbC3soR5lxdOPljX/E9hXM2tr9suY4I2zLIwVQRxk1d/aG/aIg/Zr0O18B6dEr6tNAtxqFwOP3jjoD7DAr4rizP5ZLg/3CvVnpFfr8j7vgzhr/WHH8tV2pQ1k/0+Z7fqnxw8MeE7UaHptzHbWti3lbVYZZu7H1JNaXhn42WereWRMrLJwGzX5M6h8StV8U6o00Cz3N3M+7yoQWZz9K9V8G+PvF+h28Yv9IurZeudwLD8M1/KmJwWMxE3iKkryerP7Mw9PLaVNYajC0Y6I/Ty4uINT0x3LgOQSDmvnH4nXd5b+INMETf8vSbT/wACFcD4Z/aQuPLitbiZ1dsfLKhUjj3qzf8Aj4eIPFGjMRvh+1Jk/jXDCjKL95WZ1U6aot2d0aPxe8YSJb3cbNwX2gfhz/OvHrDxBdfY0+ZlQk8djya0vjL4hMmt39mWUfvCy7f0rzmHXobOELNJ8qjHXivUpUX7NWMalRc+p6Hp+sGaZjI+T1xmrN9rMK/vI2CD2PevBPEnxStdHZgs6jjH3q4i8+NxmZisxSNeFB7+4rrp4SpLU4qmLpRe59d6T4uDTCC5fcDwH7iurXDKGByDXyl4D+JkWpKjz3CjsK+h/BfiKPVIDAJN7IoK854r9j4L4gqUaiyvFu6fwvs+3p2PwnxC4WpYig85wKtKPxpdV39V1OooopG6V+3n82jaKKKsoKWgc1IBt4pACjApaKKkApUXcwFJT4fvik9hrcsRwgDPepV6DIqRPu80zpmseY7FGw9WDdeKnWNevUVREg3Y71M021eOKiUS4yVtSWa6WJcCoEuC3INVJH39aI5Ah9qpQSM5VLyLrSN61Xmk4x17U5ZN3vUU6quMdapJEyk2iDFJTqbWpzBTqbRQIdRRRSKCiiikMKKKKACir+l6PcatMI4VJNdrb/CHUJIUYq2SM1yVsXRoO1SVjvoYHEYlc1KF0cHRRRXScY2Qd6ZUjfdNR0CCnq5HFMop2BE+41E5yxptFIdwooop2JCiiikMM4qSOQqeajpCaBp6mtDLuXGean2h1rFjmK9elWork44PFYSpvodcKq6lossbY6etMkbf9KhkYyc1IqttFLl6mnNfQib0puacww1TWNvHdXkMU0wtoncK8xUsEBPLYHXFacyjHmZko80lFIg704puqLxbqek+EdSlsp7ueSVOVdYBsdT0ZW3cgjmp/D0cviiNH0xTdI2fnQYVcDJ3E/dwOea8ahnGBxLap1Vdb30f42PpMXw3muBjGdag+WWzVpL743GqNtEmGHvUH2hWUFXDA9CDkGo3mLcCvZjaSUkfNSk6bcJKzRPkKcZxUi/NVFX+bPWrkTj1q5IzhJN6hj8KR492DSyMBz0pfMGOKnUvTqb3w7t418baVI8fmrHMJNnY7eefbivkf486brHx4+PmozCPDNMyOVIIVFJ5ycD86+xPhjdRQeMrIzFVRlcbmAODsOOvQ5xzTf2cfhHH4q+Jutard2gfTpLuR5GYcPGhzs6fxMVHuu4V+EceTqSzWhTS+zp95/SnhnSowyjE1nvzK/olsYnwF/YVurvQILuW8/4R2ynXP22OENe3CHn5N2RGp/vck9RgdeG/bN+CXw9/Z10nS5UsdX1O9vUeaXVL2/nZIlUhckKfmYlugwBX6bsyQoSSqKo+gFeKftBeIvCmr+G5tM1fT7XWgMskMsXmMreq4+YfhXytP2NBp1NT7meJxOIfLTduyR+bvhfR47XXvDunvqMOuaD4itI7vTruNiWjWRmVCQwDI29SCp/WvqDw38HEsfCsWrXZ8kRMWHHUjjOa8++Hfwnl8UfErTb220pdG0HTZ1vJGPy5KcoOSTjOOp6DAr2L4leLrX4haEng3wVq9vHcRHyZZbkMiyHuFOOc818Vn1enUxKWG001PuMpjiY0FCuru+7WyPmP4qR6NeahLOJiJv8AZOSa8H8dxPDpRntX8yPs2OlfQ/j39lnxvY6aZ5L3TZJORtWZh+ZryjVPAuqeG/Dstr4jNnAJgRGEnVyQe4xRgqiUUnK5rjqSk7wWjPCY/C80bQ6hqM8OlWVwokS7vTjMZfaHBIOATnHGTivX9O/ZyuNYjkt01ZbiT7PFdJuSOe3nglBMcqMuMqwB9CK9c8OSfD74keBNJ0fxJZ2j6jp1utu8THy2IXgFD/EpwD3wc9DXceE7Pw94VszZ6NbrbxNtUkuXYhRhRknoBwAOBX3XtKHsPdXvHwFT28Kru9D4Y+IHwh174X3QukjdLYn/AJZEsn/AT1/A9K9E/Zv8WXtxrqJcu7q2EALE9a+pPHXh3TfFvh660+7RXjmQrnupxwR7ivk/4OaFL4a+J50mU7JLa5MZHrg9fxHP41z4Oo5Yqk4/EpL8ycRKM8JWU/hcZXXTZn2EvShulAoav6sP4oe42iiirAkTpmnU1fuinVABRRRQAVat4+M1XwKuW7BY+etRLY2prXUsDpTJBt6c0m+mvJ+NYKLudTkrFJs+YTQZGbqamlAbnpVf+Kt0cctBaKKKDMcGK9KTJPU5pKKCuZhTadTaaEFFGKKoABpd1JRQAu6jdSUUhigmpre0lumCxIzH2qJfmwB1r1D4Y+D5NSnRzjrXDi8THCUnUl0PRwODljKypRNn4T+GbhLqJ5bdse619Fw6UiwoPLHT+7UHhfw/Fp9qg2jIA5xXRbQO1fiOaZm8ZXc1of0VkuURwOHUHqz8+/L96aeDUhOKjY5NfvB/NTSEqKpaRl3UEkdFKylaSqJsFFFFAgooooAKKKKkoKRqDQ1UHS42nKxU5FNooJLkThhmpFkIBANUFJUjHFWo5Fb61LibxmOaQd60bGGwXS7i8nkluJYXAGn221ZJFIJ3Bm4wD6An2rOZe56VPot1YWt8kl9A1xbqCfKU4DNj5d3+znqByRXBjac54eUacmn/AHbX+Vz08trU6WLpyrQjKN9VJtR+dtbI4fxZ4s1u5s9z+EEi8PO2xmlcvMwJ525bO4c8heK5Dwx8ZdV8NRvo9lKttpdxHJBIsg52sCCSfWuy8WeEpPG2vG/1nUpZII2/0e1s18mOMdsdcfhj61U1n4T+GNWkWRIb20k/jMd0WDcdfmBP6mvxXGcK5vj5+3mr32UpLm+fQ/pfBcdcP5XS+p05Jd3CD5L+V9X6nmWk/E6/0W8jt4LpruBGJkimGVA9Ae34V6HYfFbS7hUE6SQMev8AEBXZ+Cfg18OdU0V/D+p29zpuozP/AKPrqTGQo54CyIeNue46V4P8X/hh4l+CviafSdai3QA/ubyLmOVOzD8K82tic/4ZqKk5vl6J6xf9eRtSocMcZ05VlTTl1a92S9bfrc9s0/WrDVF3Wt3HLnsrc/lWgkhU9K+So/EU1n80EzRt/smum8P/AB+1PQZVj1JP7StOnJxIv0P+NfY5Xx9CranmFPlfeO33bnwWc+GMqSdXKqvN/dlo/k1p96R9JmYnIIBpm49jxXFeFPi14b8XKPst8sFx3guPlb/69djHNFMmUdW9wa/TMPjsJioqdCqpJ+Z+OYzKsfgZuGJoyi15O337Groq3V1qFvFZqzXZYCML1z2r6d+DOlj4caXd2NzY3P2uGFHlnaMrHJI5LMAx4O0gZx0yK8L+E1sIdei1J9vk2ksbOWHq1e0ePPixDrUctpodq1wqcSXN0dsC/QDlq/B+O84wtPNoUp70o9Orl/kj+kvDbKMT/ZMpuN4Vpfdy6fiU/iZ8TrwWkhS7EcfRY4s4Ptxya848O+C7/wAXXB1DxDqMllpn3vstuMSv9T2rnNQ8R7NQlub24UsDgTSLgKP9lR0FZc/xkgkuoNLspWaHOHdj6/5/WvxzF5hicW37FcsfxP6Dhh6ODpeyopJvr1O3+IWn3+raSukaPbx6VoSjLpA2Gcert1J714trk3/CAK8ChpIiu3zEleNvqGUg5r6Yu9esdN8CLduqxRMMFuvavj34wG51q5itNNNxqV/cSkwxpyX4J4z2xmvHwdOpVq2ZssVGlRlpZL8fU53VfjBqPiaz1SKbV9SSw0zCLbmcN5hYgD5yNwA9Dk+9eZa5rP8AbsKwhHcLx87M5/U10Fn8K9Zs9H1ESmNZ7sl5YRklWByOfw/WuJWaXTdQmhuVMVzGSrRMeV9P8+9fbSoyppHzUsbHEaJkWmqulyC1u4mntHbI3ffi91Pb6V1dtrF/4Z2TW161zYdfMVslB/tKT+orIu7KDVLdDbcFTySc1r6TpKXFuIS2xzx9aI15QMZU4y0krnc6L8SXv1j811kQ8eZGeK57RbW2vfj+t1CysrIJG2nq4jrkta8Oaj4UlNzZ/wCqY5Mak7T/AIVa8N+KdPF9DqEZS11aORC3y7WbBxye4xkV9BleLoUcXSrzV0pJv7zwM2y32+Cr0sM+WcotLtsfUuaSmwyedEkg6Mob8xT6/rGMlJKS6n8Lyi4ycXuhKUDNUrzWrDT5AlzeQwuf4GcbvyrqPCUXh/Vtkt3qoWMn/Vx8MfxP+FfOZpxFlmTxbxdZJrotX9yPq8n4TzjPGng6Dcf5npH73+hkhTwAM1NBZT3TBIomkY8AKMmvT21r4b+H4vMmtklIGf30hb8etct4k/aq8NeF7eSHQLCEysvyi3jABP1r8zxHihhX7uCw05vzsl+p+o4TwjxzaeMxEYryu/8AIxdY0C78N2KX2sxPplqzKitONrMzdAFJyfrWt/YOjeHYBeeJtXht7YjcsNnKsssmemMZA/U18wfE346az8RtYjl1XbHFaA+TBG+VDH+I+9ZmkeMp7dbe4c+ZNAwaIucgGvJxHGmb4iFopQT7K7Xo31+R9xgfDnh/DSi6jlUce7sm/NLoj6s1C88IXenvJo8esfaTwv2xAiD35XJrCSRl4zXK+EfEmsapAk1yLPVLWQf6y3mIdD/tBgCK6jPfG32zmv1Th3FVa+HtWU297ys0/Ro/D+McBQweKUsO6SW3LDmTVu6lqPZm65wKaHNDNuptfWn54OZi1NoooICiiigAooooEFNp1NxTGOpp60UUwCiiimAUUVLbR+ZMoxxSeiHFXdibT9OuL64RYY2Yk+lfV/wd8EjT9JinuVxMRmuI+DXg+11BRNInK9B619DafZLYW6xooAA6V+U8S5w6n+yw0sftfCeRqlbGVNbliNVjXAHFO4opdor82P1jbY/PlqjqUjNRkYr+mz+QpCUjNtpaY2c0EiZJpKKKaEwooopiCiiigQUUUUAITSE5pKKB3CikJpNxp2EB604Nj2ptFUK5L55bg03NRbhTqVguOoptGaVguSRsY5Aw6g1698VvCtv8Zfgbo+r6moW9sXNu8iLywUcE/hXj6nkV9Cf2pp9j+zvYQTyBZJpHwvT5uea/OuNqcHgITa1Uj9U8O6tSOaShF6OLv96Pzt8cfDGPT5pZrG5H2XJOyQcjHpivLNY02S3YgnI7EZr6S8VRLDczbDvRjgZrkz4S0zXVlilbbLjK7fX/ADmvw1009Uf01zvY8f8AB80ej3RuJADLngE17b4a8Y/bGijtyTKeOteeal8M7vT5Gkh2y227AwctXovwd8HtdeILSJJEL7hlZOOh5xmvMxdOcU5rc9XBVY35JbH0t8OLTU7Xw/dQ3Cqv2pUwqj5wNw6n15/CvT/FzwaDo8awxKsSx/e/vHH61X03wreaTfWM2FaPgMCR3HpTPiu4Tw3dRFOYxyQM8+n0r4vlq16/tK7v6nvzqUqUYww9kvLQ+UfiH4pn1K9mgX9zGp+7GOv19a4nRr5rXVIn5J35Zjzmr3iW8i+3TAEBmONtZEUbNNGqjLtjOOor6SNJcumx5sqsnK7Z6R8ZPi7dQ+EtL0+z8x44+XCnvXiFh4g8RzeKLLUtLEsepWUqzw3RO7aw5B5yD+PGK7Pxtb3R0pAI/MVVJzjkH1rzHSrzWJLx44jIIx8p8sY/CtcJCNOPumWKnKfuvY9m1Lx58RNQiaeXRtFhupl3GaOJlVjnrs3Yz/hXhGsSO2o3txqySQ37SF3bH3mJ5PpX0R44vp9K8HWr2sReZIUI9en+NeC6hcXXiC6ZbyHa2cN8vPtXqSloeTTpqL91Fjwy0S2GBJ5jFsk/jW9GxilyOCOax9Nsv7PjUrwF5rTmulmUOpBxXmyjzNs9RSskmdhDeJq2mC2mwx7bq838XeGV0++ilhHz7gcY6jNdJp18scgO/A9KPEEyTL5mOQvBz/Ks43g7ouVpKzILj4z6/hLW3vBaLGojULGCeOByaS+8Y+KNQtXDa7eYYdInCdf90Vyd5ZhpFcDB9a17NmkRAoLsvURrX0rznMJJR9tL72fMRyTLacm/YQ7/AAr/ACMy3W8t7gvLNIztyWYkk/j6101j41udLi3NdLFsHPPJ+gqX/hEdW1zH2e08hGH+sm4x2rX0X4UQ2lwJb+b7XKBkr2H/ANavPcHW1qHpRqexXLTZy134o1XxNfKIYZpyx/dlwcH6V6z8OvhmPsf23XE825c5SEHCge/rW74c0a2juk/cooQcYUYrtlQLgD7vav0fg3J8NjMROrVjdQ6d2z8q4+4gxeXYOFGhJqVRvXsl29THu/Beh3xBm0q0cr0JiGaWTwXoE0Bhk0ezeM9QYhWzRX7e8Hhnr7OP3I/m+OZ45aKvL/wJ/wCZgaD4FtfDdw8unzzxQMcm3YhlA9ATzj610FSq3yYUZp8en3Fw2I4XY+wqMPhaGDTVGPKnqa43MMZmkoyxMnOUVZPrb16/MrUV0uieAdV1qYJHbsPqK6yb4D62Y1aGMux6jFRVzDC0Zcs6iTFRyvGYiPPTptr0PLqK9Mh+A/iJnKyW5Qf3q2LX9mzWZwCZlXPtXPLOMBDeqjrhkOZVPhos8bor1/8A4Zu19rwRAr5ZOPMNbn/DLd4sBJvQXxnj1rGefZfC16qNocNZpUvai9DwSivTNY+BGvaazbI/OVf7tcveeAtWsmIktpFI/wBmu+lmGFrK8KiZ5tbKsZh3apTaOborQuNDurcHfEwx7VTaGReqkV3RnGWzPOlSnD4kRbaSpAjHoKmSxlfotVzJbkxhKWyKtFasOg3E2MI1alj4NnmYZVqxniKcFds6qeErVHZROZjhaQ4ArY0nRpppl2ozEnsK9A0P4bvcsm5MD6V6v4Z+GttZojNEC3uK+cx2eUcPFpas+ry7huviZXeiHfB7TZbGzXzIynH8Qr19fmwc9qx9L0yOzjVVAGK1tw6V+PY6v9arOr3P3fLsL9ToRo3vYfjmlpFPvS15h6p+fRGKawz9afuFIa/ps/kVohopSuKSgyGsvemVLTWXPTigQyilKkUlMApM0tNPWmSGaKSigApN1DGkqhXCkpajfrVCHF6YWJpKKYgpQxFJRQA9X9afUSjcaeFx3pAOro/HN5dab8OtLsp2K+eWmWN+u3sQPTr1rnVOGB963PizMb+HSpWfdD9lWMMemQOcCvzXjirKOCp00tHL8kfsHhtQhPMKtVvWMdPmzwzVYxcK7MD7k96z9J02SaQ7RgGugvrdLlmRGyvsOBV/QdLWNypXO3+WK/EnLQ/o2xBoNiyzeXKu9CcdMivX/BPw40u7vYnEZhdsAyLwfr+dc3pekgTI4UAN+leteCE8lY/RTiuepK6sy43i7o9P0r4N3NxZosWqzLAR8vzHj3q7rn7PP9taU1qddmDlcBpE3D8a7LwTqwuLMBhhUGB6V2EZDDdn73pXPDC0J6tHLUx2Ig9JH58+Of2OfEeiazLIZobyEncs0eRnn07UeGf2YZ/tQe7k+ZTkqCMV996nYrfW7K43EDK/WuFeGLTdQKtGXyclgPetnh47dCoY6pLXqfN+p/s82clnKHaRVbjbg5PuTXl9/wDDvTvBd28KwLJIz7y23H419y6la201o0gAK7cncPu18vfFeFLbXggAx5ZP50oYeFN6Gv1upV0kzzjxPDBqHlKI1dSoGFHoPSuR1L4Y2l1G8sSeVLjk5+tdrY7WaZX+VlHB9K2LSzT7PuYYDAgY5Fa1KaehUKso7HgF38M71YXZSDzjaBXLXnhXVNJZx9naRG7r0r6I1ZoIQBDkE9j9azVtBLHhtjL1rH2MEbuvNng+jeENb1SfKWxjj/vSHAruP+FW211pYju7gtOedytgA13q2peRcHavSmS27b9jjknhhWfLGLvYp1ZyW557p/wl02EhbuWScZ4+b9K6bSvD9jouFtLdQF4DMM1uw6eZG6Dd0Zc4zinSKgBAGMetac3ZGOrepCsYbcCNgxx7VFFY5kGemfvVMp2yAitC2QFlyu3PGanme4WEv5P7CisPKUFLm4WN2kXI2n37V0I5GadqVqt14XeKYKjoQ0bN03A8fSoLWRpbeNmXY2OV9DX7XwDVhKhWhb3k0fz94mUqirYerf3bNW8yWnqu5gPWmqu5gK774d+Bz4gv498ZePPNfpuIxEMNTdSo9EfjuEwtTGVVSprVi+C/A8mtNGUQt68V794V+F0FvCnmwJn3Fdd4R8H2Wg2KJDAqHHXFdOFCjAr8czTPquKm403ZH77k/DNHB01KsryMrTfC9hpoBigRG9QK1VhReigfhS7qTd718jOpOo7yZ9vCnTprlhGw8KvpTtqjtUO6l3e9QaXRK2FphYU3dRx60BcRo426qD+FUbrQbC8Yma3Rj9K0OPWm7quM5R+FmUoQmrSVzlNU+GWi6lGw+zKpPpXlni74GxQ73tEyOuK9+3U2SNJBhhkV62FzbFYWSam2jw8bkmCxkWpQSZ8Xah4FuNPuSjREAe1a+j+EmkxmP9K+l9Y8H2epZJjUN64rOt/A0Vm3C9Pavrv9ZPaU9dz4j/VN0qr5dUeUaf4L+UEx/pXUab4RWPGUH5V6BHo0cOBtqf7IsZ4ArxK2bVKnU+gw+Rwp2ujF0vQUt8HaBXQR2/lLgCmKNtStISuOleHVqyqu7PpaOHhRVooljmCjBNP+0L61RZvekyTWFjpNFZx1BpftH+1VDOOtN8xfWpsFz4X2kfSinUn3TX9Jn8n76MSm7QacaKZJGy7abUtNKelBDiMqNhtNSlSKQjNBJFTWqQrim07k2GUUpFJTEI1JTqTbVCEpGXdS0UxDPL96XYKdRQIaFApSoalooARV20tFFABXoFtZW/iXwCLcRB7y3LYYjoK8/rq/h9rBsNSMRICSDBLHjHX/APX7CvjOLcI8Vlc3HeGp+icCY76nnMIy2mnH79vxPNrzw6dPkKyctklh61oabp4DhuB6n3rvPFXhtF1QuozG/O7265rNXS1WQBeMDJNfzi5vof1dYm0mx+XaBg4wK9D8OWRjRMfd3c59q5HTdscmcdz1rutFuFFqMeoGKybGemeF7iS1Kg/cHOM16VpV4txboT1I/wAivJ9DugsY5yq811mi6v5c3lltwzuGD0FOEuV3PPr0+Y7qePzIzzjiub1TR3mlaRl3ADj/AD/npW5aXgnIRTuOM9auSR74znuK9BR9oro85ScGeVeJLoWNlLznjLnPP0r5i+JF4l74iDFs8f8A6hX0j8Uofs8M8cfBIGW/EE18h+LtS/4m9wpGG31ipHqU43VxI1PmhV/1svB4rY2tBAf4lAHXgDrXOWt6ryRyK5ZlXGe9aF5qh643K350Slc3UWjMvbUySMSuGXOR1FUI1VVCkZBOM9MV0qQrLC/GCByf8/hXOXjCBsL+vas5SVrFomUJH82PlIzTZNvyktyOn+FV0uQ6uv4j2pRJvYDoOlYlk0cgfO4YJ4z71XuMFjnuefrSvIAVP8J6j3qF5A0nBpDQ2GLdJgHnPFbGnwmSQKRxkcVVtIRyzdjkVt6XHi7UH7rVIM1PE0YTQY7Vl+eRhhh/Ws6NdsajrxUviaRrjUrO3BOYRlwD+VRiv3jgPDuGCqVmvil+R/N/iViVPG0cOn8Mb/eya1jMkyqOua+rfgn4WOl6PHcuMtIMivmrwnoc+raxbxIjYZhyBX2p4R0ltN0W2hJ5VBmu3izF8lGNGL3ODgjA+0ryxE1tsbkbbeOnFS7vSo/LNKqkZr8klufuA4c0uBS0Y4qREbOB2pPO/wBnimPw5pu6teVEcxL5o+lJ5nXnFR5NA9KOUadyTzqTzKbtFG0VNl1GL5ppd+feoyKTB7VdkQ27koapFYNwag5pytUuPYpSJWjGOBzUEkeOoqTcfWmMxbrRFsGtCpJEOeMGq7dvrV4iq0kJ5I6VqjMr4NPK7FyaVVGc1Q1K8MYIHTFPd2IlKy1Fu7xY++KyW1T5jyKy728dmPJxWe07Z611xpaHnzr6nzARSEZqQrTCMV/QKZ/McojOlLu9qUik21oToG6kpdtID60BZdAppUU/bSUySGmMvcVOy5qOgyehFTakZfSm0yRlFLikpiCm06kYd6pAJRRRTJCiiigAooooAKPMaMEp97oOaKF61jWpqtSlTls1Y6cLXlhq8K0N4tP7j02xZdY8K2c4w0wG1s8nGTj88flWV5LLM4K8gVS+GuuJ/aGoabJjzHxKvP8ACBgD/PrWzfMsUkjddxPH8q/knGUXhsRUov7La/E/t/CV1isPTxC2mk/vRQjjEPBPLHvW9pN58wXOUY8f41zs2WZWY9BVm3uPJYKOp4FcZ2HpOj64Y1dM5ycc+wrYg14QNJg/d43DvXnNjfHzFjBAz19q3YJfNULu5bNSS0up7D4J8TC6vFjJyXIGfbP+NelnG32xXzNpOpTaLqEUsRICkmve9H8VWeo6LHcCdA2wBgTznHNehhaqimpM8rFUWmnE4X4rWvm2zOnJD7uPTFfFfjzT3j16XB+RuQw/GvsjxVrSavDMo+95fA+vb9K+YfH9ikfmv12n5f8AP41zqerZ3UotRSZ55p8xjZAD1BDfrzWw1wJFXIHPp24rn9PkUgjPRsVoxzARs3boKlvU6LHS2p8uBXHJYDNcf4ikEL9eR1/OtuPVo47EszBdp5rgb/Vv7W1C42NuToMVAJEtjqTyXBQDoa2o2O49hnrWPp9qLdcqckjNasTdM9OlO47C3DcHHBP86ns7fcpZuvX6VFDHumweR2rUt4QWwOmDSAmWPEfTnNbmhwZnDN9xSCKy0T5tq+vWtPVbv+x9DeRf9YwAX3JIGKqEXOSit2ZVJKMXJlSSRrzVbuXhsPtQjn5e1d34D+Hs/ia8jJRjFnmuM0OzbzIIVBc5AJ9a+wfhH4TTT9HhmJ+Zhnp0r+hKtX+wMqp0IaSt+PU/mKnQXE2d1cRPWF/wWw/wX8KbbQljlKDzByOK9IhjEKBQMCpFQKoAor8rxOKqYufPUd2fsuEwVHBQUKMbIKKKTIrkO4U0lIzcUz60EsZL940ynM1GOK22Rna7ALRxS036UtZFjqKbQoquVCTuBoxSnpTcEjJNTzAOxRkL2pvI6Ggml6jFOD0pKNwHSlzVK6E9RMZqN1qSkxmqJaK02VQisK+j3A+ldFNHlTzWJfbemacb3MJbHJXwCseKzWY5PFbOpIMk5rGbG416UdUeRUSufNrL+VRmrHWo2j/Gv3dM/nKxFtpMGn4pKu5m4jKRhUlNqrk27DA1O60EZpnPerJ0YtNZc0/71JTJaIaa696mZc0wj1oM2iGkxT2XuKbTuSNxSU+m4piG7aNtLRTEGKMUUUCsG2iiigLBRRRSAqafdSaT4z0y5RSVkOyQ+1enajCDH5nYr/WvOWjRbq2mc48uQN06Dv8ApXrVxapcaakgH7vAYAjnnmv5q4voewzirZfFZ/ej+veC8S8TkGHk3rG8fuf+RygLMy5pzZWTg5OeKvLYMW3AZYjp6dqG011fa3BHGa+NPuLD7GbY248nNdDpM2enzOTj6VzRjePKgHA7it7QJsMqMOnTHek5IXK2dV9m3x5J6DrWIdeutKvJIllZIsE7c9zXaadZm7jGBgVzvi3wlLuEgXIJyajcaaW5F/wkkfmSZf2PPua8h+ImrQS/afmXuRj6f/Xp/iS/n0Ka4QlssOOa8b8UeJp7qaSMMeSRWsYsHbdDINQEbON2Dk1eOqD7OEDc55rkreGV/XLEVrWllIy98dKuQITVNWlkiaCJuW4NQaPp7WikufnNaVppOJDIwzU1wuxgV4wakY+FguPXrVnzBjA5rNkkP3uhFXtOjNwyntSCxp2ikYJ962IVCwl6pQwnaoq+FMcZwM4qkQyzYjdIQPTpWX4sv/tfiDR9LQkcmeQZ6qBx+uK3NFtfOk3k9uRXOWsZ1D4harMcFLWJYVPuTk19Lw7hVi8zo03te/3anyfE2MeBynEVlvay+eh6X4Dt4ptYh875Vz3FfZ/hCOKPSYVi+6FGK+NfCFrPLfReVC8jbhjaua+ufApurfS4kuk2MF6V+ncWe9y6n5BwT7nNeO/U7CmU6Nt4yKDG1fmR+vdBjMeKa3FSbc0mwUE2IeWpwj9eak2j1opiImjpm0rVik4pisV6bViRAy1XxxmtIsTQUq05Yy3PapFjFEpdiYpkRpGBIGKn8kUeWFqOYuxBg0mPwq1gUjKKfMBWop8i8kg1C2a0TuZMUuBVeS6K8D86bNJ1AqhcS4zzVEti3moMq/e/WudvdROThqsalOdhNc/JudjXVTh1POrVOiEupmk781RMZzVto2xUHNd0Ukjgeu585EYpKlZajK461+3n88sYyelMK+oqWg807iIMUlSMuPpTCKoloZSU+mniruZNDPuml4pabtI96tMn1CkZd1KP0pcelUJoh2kUlTYprLmgz5SFk9KZUxUrSYoJIdtJz6VIy46U2ncQzn0op9FMBlLTqKBCAUtFO2GlcLCwxpLIqvjZkZz6Zr2jRLV5vDsaOoZ4xjnvgcGvGI1IavoD4VKut+D3ldVZ7U+U655PHyk1+P8AH2CvGjjYrb3X+a/U/efDTMbKvgJvtJfk/wBDlLfT5LeQ7j8y84/AYqzPZiQbuMjP866y60KFlUPlZMlTjoecdf8APes9tL3PKMZUkgEdvp+lfiTkfv0bHNyWSI6gDtVzTbMeaAo9zVy60uSMFsZNSaXCxmHGBu9KynI1ij0fwrp4ZYweuMnjpW3rmixXEHyjPaqnhSRfnPTsK6aRd8ee/XFXSkeVXk+c+Wfi14VEfnuE5BwP518yaroLNqDZHGa+5/ifpa3kMiqvO3ccV8qazZLDrEiso6/1r04NNFxb3Oa03w2GjDEYNbdroKRKSRkYyMVqWseFwBjbzippNqK/p2rKVjS7Zzd5bLDnbwKxJlDMeOvFbupMWyBWHLyvvWRvEoyR7eK2NCj+Ws9YTKwyOgrZsI/JT/PpSLlLQ1YtuxRnBpylt7KOeefzqqk23GPTNX9PtvtFxvHO4A4B/wA+1aI5mbenRrZ2cl452xxgsT+FT/Dnwiuqa15YX57yYzSe2TnH5U++t/N/s/R4QGuLlhJIufuxqck/ngV7T8HfAclnrS3jp+7UcGv03hinTwWFrZhP4to/qfknF9SpjsVQyynrG/NL9F+p6v4P8D6foVnGsVtGrYGWwM12lvarGvTiooVCBR0FXR0rxMRXqVpuU3ds+hw2Hp4eChTVkgX5enFP3+9Rk1G0lctrnbzWJWb3xUXm89ajZj3OaZv5rRRRnzXJjIT0NNLsOhpFpGqgHeYfWl8w+tRngZpvmClyphe2hNvNL2qNTTt1Q00O9ybjbTfMxUe4n6U0tj2oSuMlabHamtMT04qHJbvxQufrT5RcxI0h70m5iKTbuqRUpaRAZtZuxNO8gt7VOq7RTuKXMPlKMtjuqhcacWrdNIVFHOxciOUm0Uy5B/lVb/hFQxz2rs/JX0FL5S1XtZIy9hF9Di28M7VPGaj/AOEZX+7Xb+WtJ5aegrRV5dyfq8ex8I00rUmKTFf0Jc/l5ohKelNIIqYimlfWruRYiqNlx9KlZdtJVIkgxSVKy46VGVq7k2G7abT6KZDiM2im9KftpKtMkbupetLtpuMVVydwI9aYU9Kfmj6UyWiIqRSFQamppUGgnlIfLFJ5fvU3l+9JtPpQTZkRQj3o8s+tS7fajZ+FArDQMUVIF/Gl2j0oK5RgU/SvcP2Zbe7uta1GERGTT2gxMxPyqeqn6k8fnXj2k6bJq2pW1nCN0k8ixqPcnAr7S+H/AIF0/wCGnh/7NHJvuJcPcTtxuYDoPQCvz/jLF0KeBeGqfFLVfJ7n6ZwLg8RLMPrVP4Ypp/NbfqcprGitBcbAfl3ccf5+tZsdmFjAZQGUenfpn9K6vxLqFtJIx81VOcHBrgNQ1R45GkDh9uOvr6V/OMl7zsf09Sk3FXJp7aJY0WRgHIOM/n/WsdfLFwvknco9KwNa8QO3mF5dsig5HbmuGk8fz+H7wCcYTfknP8NYygz0IWaPo/QZWt4QT1xmugj11G4Y4wMGvJPBnxS0rW8olwokAAKk47Vp+LPE0WlwySo4xt9aIwl0OOpBOXvEnjbxJFFHcICrHB/rXy94pnR9Wd0x1P8AOtvxT8SDdXEqoxYf/Wrz241Jru48wnknFejTulqLlS0R0cNwME5x0qOa6/dYzzWK16yt16HNHmPJIMnApsBbptzcc564rPuIwIyTxWheSRW6j5h69axdS1ONgEjIYnpioLLMJCsOOtbEcYaEnGOBWTpts02xn4J5/Wt+DbCAjcAt830qkiZMZ9jkWTGMFVP+f51reH1FpMPMO0L61V+1P8wVQdwK7j6GrNlaSzMpbqRjH9KsyN74F3Q8X+IdV1qUiRZbhre2B/hiQ44+rAmvsXwnZrY2aBQPWvkPwHGvw/mhWGLFmzs0fH3QTkj8ya+rPh/rSa5p6SqeMCv1XE0Y/wBm0J4b4OVff1/E/HMPWlLNsRDE6VOZ2/w9PwO1jcyLnGKtwvgYJpkEQ8vPSnV8nJrY+zirD2YYqEjGadmmOeKheRQlNAWk59aK3IbH7himbj9BSH6UGkHMObLDFIseDnNAp9MkKKKKACm06g0D1GUKT+FBpvHrSd+gKxKvtUqvVXzKXzDWfKzW6LXm+uRTGuMGq0k4Uc8CqkmpKnpTUbkymkaom96XzvesJtW54o/taq9mZ+0N/wC0D1oNwPWsH+1Qf4sUNqCt/HUuBXtDXa8C96Z9sHrWHPqAXoar/wBqN/eq1TbM3WSPkXikNO2+1JzX9BH8x+o0im0+kIqjNxI2X8qjZcdOlTUhWrTIsQU1lzUxUH2pjLtqibERUimkVNTSg7cVVxENJipCp9KTbVXI5SPbRin4NJTuLlGbabg1IVpKvmIsxm6l+lKRSbaq5OjDaaTaaXBFJzQKwbaMUc+tFMfKLj3o20lGaB8p1Xwvnjt/H2iSynEa3UeckAdfWvc/jp8RpPDt2bKKQqVUE7T6186eHobibVrVbSNpLoyr5aqMktnjiuq/aqvls/HMUU0gEsltG8ig99vP65r8V4/pp1KMr73P3bw1l7teDXZmNN8Xrhrks7+YhcbsnoPQCmzfE5Lxm2Fk4yN3+fpXkn2/qEHHvjrU1pa3125Mdu0aEcPJwDzX5phcur4x8uHpuXoj9jxWYYbAx58TUUF5ux3+seLDJGShZ2kzu9uen5VxniC4m1GNiMkhdp71ah0G7bma6VfZFzj86tw6DAv+sZ5j/tNX1mG4KzSu/fioLzf6I+NxXH2TYVe5Nzfkn+bsjz6zh1XSboz28/luDuADV1Vx8R/EGoWRt54jO23G6u20/SIUsZfs1tG0+087eFHqTXLWchsZpFiiW4umODJIcjPoAP515WcZK8nnGnKfM2e5kWfRz+lKtCHKl3OP8++uH2ta4dugJ71z2qeLLfQbhkvZY7dlOAGau61q9OjtLdzlXn2nG3jbnivm74maq2o3eDgnmvnVOV7H1ThFK56d/wALQ0qRh/xMLUeu5iP6VsWPiq21VkW31KwLehuVXt7kV8xW9sHUEirf2cqu3HFbxjc527H1FN4P8Vala/arWxa9tTyJbSRZRj1+Umse30y5s7krdRSwyL1SRSCK8P8ACuqanoWpwzadqF1Yup4a2lZCPyNfYfw/+JmoazpMcXiC3s/EMJQKTeQjzf8Av4MNn3Oa9jA5LiMxbjh2rrueFmefYbKYqWJTs+xyFpK25QOCB+Va0K7udwBA5U12t14Z8Jas2bVrvQZiOPM/fw5x7YYfrVR/hxqnLWElnrEYGQbWdfMx67Gww/KpxeR5hgv41Jpd7XX3ozwfEOV5gv8AZ68W+z0f3OxipGnyk/pWzp0kagBhyRgHNY11a3WlybLy2ntpAcETRle3vU1jdKWAJGFOeDXhyhKN00fQJqSujur2ZJ9Bxt+ZGXDAdK9u+Bt066aqOy47ba+fWn8yyWBMAud22vWvhDpd3YyRz+cTET93NfrGU0b8PJSe8m0fiedV3Hie8I7RimfSEMh2VJu3VSsbgTRqOpxVzGBXyE1Y+6g+ZXA9KiZieKVyeKaKmKKewppMmkLUVqZhRRRQA5aXcfWmdKje4WPrzQImZqi83bVG41IDocVm3GrbSfmqlFszlUijda5Xd97FNa8Ve/61yk2rk9DVf+1Hz1rVUZGTxEUdcdSWk/tBa5P+0ieeaVdRYHqar2LI+sLodWt0rnrRJeBFIBrljqTeuKP7QZlxup+wYvrCNO+1LGeTWRNqDtzmoJpi3U1Wdtw4rpjSSOWdZssHUH/vfrSf2g/96s+RetMxgVr7NGHtGan9ov3al/tFvWsbcd2KGZuxp+yQvatGvJqDEHLGofth9f1rM8w+tG+n7Owe0Z4TTWTg1JtpCK/Y7n4KVitNxVhkzUTxntVpk2GEU3FP9jSYqjNxGYppWpNtNqrmbRC0fpTcVPtpNvtV3JIaQqDUjJ6U3aaYrEWw0hU+lS4op3EQ7aTaanpjL6VQiHbRtp5FNp3J5RtJTiM02qM2hrdaKdRVcwtUNxVmx0+fUrmO3tonnmkbaqRrkk+wqOKJppFRQSScYFe/eHNN0f4M6PFc6i8T+KruHzUiYgtbIR0A9cHk/hXzOfZ7RyPCutU1k9l3f+R9Zw5w9ieIsWsPRWnV9kQ+G/Cdh8G9AuPEXiBov7ZEZMEJOfswx94/7Z/SvlTXtUv/AIxeObrWbu4kjsYTsUdWYfwrk+1a/wAaPiveeMdWmtlume2U5YZzn2qXwzpo0vRbaED52XzHP+03J/wr8hyDD1eK82ljsw1jBbdPJH71xK6PAuRRwWX6VajtzddN3/Xcls9BsrNgyQguOjPyR9PSr20elO20u2v3uhRpYaChRiory0P5jxGJr4uo6uIm5SfVu43aPSk207FG0niui5y2aOgt/Li8O3K79rMOi/eavK7rUI9FaU7maU89eB7AV6pp9mJtOkBPbkgcV4142tbdrtoGkCEk9T82P6V+K8YUk68Z3P6K8P6zWElTscb4u8SSXiYLcsc8mvG/FUZE25s5PrXf+Ipre1m2RsJM8DH868/8UXCyS46kV+aOK6H69zOxj2aBpFFb1vZqqnIyMflWPp4HmKTXTw7XhBXrj8q0iYSIrG3EN5G2QRnqRkV9IeAUSTTYmULnA5X6V86wL5cinque3FfRfw1VX0mIjpj+lfpXB8/9pcT8o48p/wCxqZ26rhRzSjg5BIPtSqpOOK6Hw34Nu9fl+UFFH94V+yVa1OlHmm9D+e6NGdaajTV2VNN1LVJYxaxu11b4x9nmHmJ69D71fk+GknieL/QtLk0m/JwskJzbt/vKeV+oP4V7J8P/AIXpYMHuEDN9K9h0vw7bWKDEagfSvynPsVl2Jco+yTfdaP8AA/aOG8LmuEUZe3aj/K9V+P6H5p61qniT4b/ElLPxDbeWtuvltCjZWRM5JB9a+5vg7pum694YtdT0y6S7tJlyGQ8qe6sOxHoa85/bi+HsN94TtfE8EA+02ThZHUclT6184/BP4v618M9ZhvtMlL2zsou7Fj8k6ehHY+jdq/NMPmmIwdN4ST9y5+zYjI8LmnLj6cbVLW9fL/I/SKDTzbY2npUuWH1rL8FeN9N8feG7XWtLk32045RvvxsOqMOxFaztntXoxn7RX3PAnTdF8jVmiNv1ozihiKa1WZXBqSl3VFJIEBoC5Jk0m4jvWbcahs71UOsHn5uKtQkzJ1Et2atxccdayby6xnmoJNU3Z/nWdc3W/JLVtGmzCpV00G3V02eDWfLMc8mnMSeTVaVhmuyMbI86cmP84mm+YaYKQsBxWiizIl8xvSn5NQq9L5gquQVyRnKim+dz1qOSQN0qBm54NUohcttMPrUfnH6VX3YprS+lWok8xO0m7rTGOe9ReZSbqqxPMyTgU1qbu96TdTsTcCaTJopKBniVFOpCK/WT8PGbaSn0hFO5NiBo+c0wrg1YpCu6qTJK1JipWj9KjI28VdyWhpFJT6TFURYYRTak20lNMixGy7qYV29al20lXcmxFRUmwUw/L14pisMZd1MZfWpaKYiDFNxUzL6UzbVE2GbRRtFO20badw5S1pN4unalbXLJ5ghkWTYf4sEHH6VH8dNSuBp3iPx4ly8194jv/wCzdPhYc2duiqzKP9piQOOy+9RballuHnt4IJSJYbeb7RFHIAypJx8wB78D8q+Q4hyCGeUopO047Ppbrofe8JcUT4ZxEpuPNCS1Ste/TU8X0XQnuvFMlgWaTyZikrN6KfmP5ivYFXbwBgdqYtjbR313dx28cU91IZZmjULuYnJP51NVcOZJ/YmHcJu85btF8ZcTLibFwqU4uNOCsk97vdsbRT6XafSvrbn5/ZEdLtNP2n0pyrjrSuOx0tjNHBoczOVzswPlzXzp4wt2utUuGLeWjMevGfrXvUO2a1ZPuZH3s814L8TdNmh1GVlJ2Hqy1+ScW0JXjPofu/AWIj7OVJbnlHijybGViZd7/wAvc155ql55kwOcCut8VWpjbk4B5Oa4i6XzGH14/OvzCSsfsd2XtOkLOK6a1Yr061zWlwlZgOoNbyXCwsCxxVRV0SzZsoPNnj9zX0d8P7NbfSYtoxwCfyrxj4e6H/bFzG7KTHuHIHevojRrEWFmkYGAB+VfqvCOBqQk8RJaPY/FeOsxpVILCxeps6SqtfRBxwTX0L8P9Jjkji2qB05xXz9o8fmajAvX5hX1X4A0wRabA/T5RX0HElb2dNa7nx3CmH9tWemx2GnaesMYq8XOAOBTFcKoxSbs1+TSk5O7P22EVFJI5v4oeGh4y+H+taUyh2kgYoMfxAZr8sZo7jRdYu9LIZZY3ZN2PukHAzX65q/Xv6g14ve/sreC9Q8SeINWuYZnOqhGEStt+zsCSzKe+T6+leRicLKpNSgfT5bmVPC03Cr8jnP2N9A8T+H/AApqA8QWMlpHceVJAzEbZflJ3qM9wV5r6I3bvrVTTrKLS7C2s4QRBbxLEg/2VAA/lU7NtBNejRp+xgoHhYrEfWKrqNbg3y81G0+OpqG4uOOtZV1feX0NdMYuR58pKO5qNdBapXWodfWsmTUix5NVJbzdxnNbxpHLKsuhZup2Yk1RaQjvTWuGaomb1NdcVY45SuOaQ+uKiaakZutRsQVzWyiY8zCSYY9KiVRJnkUj4zTFUr3q4xJbF+7xSFqezg9sVXZs1pYzbJPMFIWFQs1Jv3d6ZF0TbhTNwqMt6mmNIFHFA+YmLVC7UzzjTWbd0plbjvMx70ecajoHWmRYeGO7rxTt2O9MoqLiJPNNHm1HRRqNI8eIpKkxTa/Wdz8UsxlIRipCtNI9aCWhlN20/bSUyRlRvHu6VPTdtO4rFYxkU2rRWo2j3dBVqRNiGkqTyzTSpHaquTYZikp9JiqIcRm2kp+2kp3IsR7abtqTbRVXEQ0m0elSlaQpVXJsR7RSeX70/bSc07isMMdJtNSUUwIwpzTglOoouAmB6UtFFK4BRS9qdtyPekBZ09QzYY4z0CjJrzP4uSJbOwVNzEfxHBxXp2lpuuOSR2rxz4xXIm1cRbwozgK3f3PtXwPFjSwh+qcCKUsZ5Hg3iKVruRkaMKB0I5rkJ7XypsGvSNYt0klChU2Z+ZlNcHrS+XebAMf/AK6/Fm7n9CuNhsO2PHqKW9n37QOCT+tRKCkZYDJHNVrOb7dqkUB4BYV0Uo3konLWnyQbZ9N/A+xj/s2NniaKVhz3B/z+Ve+aXoqXUYXHJryT4T2Js9JgU/dI4Pcexr2rw4T5ic96/fcFF0MFHl00P5gzKpHE5jPm1TZ0fhP4fj7fDK43BWzX0Vodqtpaxoq4GK8+8IKDsOO1ek2TfKor8+znF1MRUSm9j9KyHBUsLT5qa3Ly0maTdTGbFfMn2I/dS1AZDn2p+4YpEyY5iFqvNJUp+Zc1nX0xRTzVRXMzKT0uVry6EYPPNYN1d7mNF5cMzkZqjIxbFejCHKrnmVKl2K0wpnmd81G5HGKbWy1OW9x5mNR+cehptNNbKKJJPONNaX8qZuFMZt30qrE3FaQmkDGkpM1ZLHNIKhLcU2aTtUO/irSbM7j2Y7ai3Fe9LuzSMatR7iQMxakoopWQxKKWioFdhSrQPWlqWyhaKXFLUjURuDS0tJn2oKSseQlStJRRX6qfiwdKaw3UUVcSWMpKKKszDbSbTRRSJEpuMUUVSEJSFaKKYiNo/bmosEUUVSJYUmM0UVZNribaNpoopk2ExTdtFFBmJSbaKKtMQbabtooqhBto20UUAG32pQlFFADgKKKKQFi1laNjsOGPevAfi14h/s3xM8TW0bykcO68L+J9qKK/O+MP91Xqfrnh9/vU/Q8h1zxZHcT4jBKDlnHAP0Fcde3hurwHPJoor8cP32RcVx5Qz97tXVfCjw1DrXiAC5ttyE/K+OAaKK+gyanGpjIKSPl8/qSpYCpKDs7H1v4f0dNLtkjUcKOM13Xhw/vU+ooor94rxUaNl2P5koTc8RzS3ue4eESPKTiu9tWPFFFfj2YfxWfumV/wkXww2jnmmHmiivHPd6CNS0UVJmLnAIrK1JS0ZxRRWtPczn8JzVwvznNVXoor0+iPHnuV2+XOKaGoorWBCAketQyHpRRWqJkNpKKKpEMTJpKKKoRDIDmmYBoooTMhClJ5Z9aKK3WxQ8Q+tI0YHFFFZvcVxhUr70KhbpRRSK6Evk+9L5Y9aKKzEDLtpAM0UUjUeFHpS7R6UUUAf//Z;movable=1;resizable=1;rotatable=1;deletable=1;editable=1;locked=0;connectable=1;" vertex="1" parent="1">
          <mxGeometry x="795" y="1323" width="134.61" height="75.67" as="geometry" />
        </mxCell>
        <mxCell id="B0hOVwlSUektJ_psYXs9-16" style="edgeStyle=orthogonalEdgeStyle;rounded=0;orthogonalLoop=1;jettySize=auto;html=1;strokeWidth=2;entryX=0.003;entryY=0.328;entryDx=0;entryDy=0;exitX=0.998;exitY=0.219;exitDx=0;exitDy=0;entryPerimeter=0;startSize=6;endArrow=classic;endFill=1;movable=1;resizable=1;rotatable=1;deletable=1;editable=1;locked=0;connectable=1;exitPerimeter=0;" edge="1" parent="1" source="B0hOVwlSUektJ_psYXs9-1" target="B0hOVwlSUektJ_psYXs9-3">
          <mxGeometry relative="1" as="geometry">
            <mxPoint x="430" y="1359.44" as="targetPoint" />
            <mxPoint x="370" y="1359" as="sourcePoint" />
          </mxGeometry>
        </mxCell>
        <mxCell id="B0hOVwlSUektJ_psYXs9-17" style="edgeStyle=orthogonalEdgeStyle;rounded=0;orthogonalLoop=1;jettySize=auto;html=1;strokeWidth=2;entryX=0;entryY=0.5;entryDx=0;entryDy=0;exitX=1;exitY=0.5;exitDx=0;exitDy=0;movable=1;resizable=1;rotatable=1;deletable=1;editable=1;locked=0;connectable=1;" edge="1" parent="1" source="B0hOVwlSUektJ_psYXs9-4" target="B0hOVwlSUektJ_psYXs9-6">
          <mxGeometry relative="1" as="geometry">
            <mxPoint x="888.5" y="1411" as="targetPoint" />
            <mxPoint x="803" y="1410" as="sourcePoint" />
          </mxGeometry>
        </mxCell>
        <mxCell id="B0hOVwlSUektJ_psYXs9-23" value="&lt;font style=&quot;font-size: 16px;&quot;&gt;Discarded&lt;/font&gt;" style="rounded=0;whiteSpace=wrap;html=1;fillColor=#f5f5f5;strokeColor=none;movable=1;resizable=1;rotatable=1;deletable=1;editable=1;locked=0;connectable=1;" vertex="1" parent="1">
          <mxGeometry x="811" y="1281" width="89" height="30" as="geometry" />
        </mxCell>
        <mxCell id="B0hOVwlSUektJ_psYXs9-25" value="&lt;font style=&quot;&quot;&gt;&lt;font style=&quot;font-size: 18px;&quot;&gt;HF generator&lt;/font&gt;&lt;br&gt;&lt;/font&gt;" style="rounded=0;whiteSpace=wrap;html=1;fillColor=#FFE599;strokeColor=#6c8ebf;movable=1;resizable=1;rotatable=1;deletable=1;editable=1;locked=0;connectable=1;" vertex="1" parent="1">
          <mxGeometry x="792.5799999999999" y="1450" width="138.42" height="70" as="geometry" />
        </mxCell>
        <mxCell id="B0hOVwlSUektJ_psYXs9-31" value="" style="edgeStyle=orthogonalEdgeStyle;rounded=0;orthogonalLoop=1;jettySize=auto;html=1;strokeWidth=2;movable=1;resizable=1;rotatable=1;deletable=1;editable=1;locked=0;connectable=1;" edge="1" parent="1" source="B0hOVwlSUektJ_psYXs9-6" target="B0hOVwlSUektJ_psYXs9-25">
          <mxGeometry relative="1" as="geometry" />
        </mxCell>
        <mxCell id="B0hOVwlSUektJ_psYXs9-28" value="" style="edgeStyle=orthogonalEdgeStyle;rounded=0;orthogonalLoop=1;jettySize=auto;html=1;strokeWidth=2;entryX=1.003;entryY=0.864;entryDx=0;entryDy=0;entryPerimeter=0;movable=1;resizable=1;rotatable=1;deletable=1;editable=1;locked=0;connectable=1;" edge="1" parent="1" source="B0hOVwlSUektJ_psYXs9-26" target="B0hOVwlSUektJ_psYXs9-3">
          <mxGeometry relative="1" as="geometry">
            <mxPoint x="550" y="1488" as="targetPoint" />
          </mxGeometry>
        </mxCell>
        <mxCell id="B0hOVwlSUektJ_psYXs9-26" value="&lt;font style=&quot;font-size: 16px;&quot;&gt;high-frequency&#39;&lt;br style=&quot;box-sizing: border-box; color: transparent; cursor: text; position: absolute; transform-origin: 0px 0px; font-family: Lato, sans-serif; text-align: start; background-color: rgb(255, 255, 255);&quot; role=&quot;presentation&quot;&gt;&lt;span style=&quot;box-sizing: border-box; color: transparent; cursor: text; position: absolute; transform-origin: 0px 0px; text-align: start; background-color: rgb(255, 255, 255); left: 496.155px; top: 989.987px; font-family: sans-serif; transform: scaleX(0.837922);&quot; dir=&quot;ltr&quot; role=&quot;presentation&quot;&gt;frequency&lt;/span&gt;&lt;/font&gt;" style="rounded=0;whiteSpace=wrap;html=1;fillColor=#c7c7c7;strokeWidth=1;movable=1;resizable=1;rotatable=1;deletable=1;editable=1;locked=0;connectable=1;" vertex="1" parent="1">
          <mxGeometry x="597.5" y="1456.1799999999998" width="149" height="57.64" as="geometry" />
        </mxCell>
        <mxCell id="B0hOVwlSUektJ_psYXs9-27" value="" style="edgeStyle=orthogonalEdgeStyle;rounded=0;orthogonalLoop=1;jettySize=auto;html=1;strokeWidth=2;movable=1;resizable=1;rotatable=1;deletable=1;editable=1;locked=0;connectable=1;" edge="1" parent="1" source="B0hOVwlSUektJ_psYXs9-25" target="B0hOVwlSUektJ_psYXs9-26">
          <mxGeometry relative="1" as="geometry" />
        </mxCell>
        <mxCell id="B0hOVwlSUektJ_psYXs9-34" value="" style="edgeStyle=orthogonalEdgeStyle;rounded=0;orthogonalLoop=1;jettySize=auto;html=1;strokeWidth=2;exitX=0.5;exitY=1;exitDx=0;exitDy=0;entryX=1.003;entryY=0.637;entryDx=0;entryDy=0;entryPerimeter=0;movable=1;resizable=1;rotatable=1;deletable=1;editable=1;locked=0;connectable=1;" edge="1" parent="1" source="B0hOVwlSUektJ_psYXs9-6" target="B0hOVwlSUektJ_psYXs9-3">
          <mxGeometry relative="1" as="geometry">
            <mxPoint x="983" y="1455" as="sourcePoint" />
            <mxPoint x="983" y="1520" as="targetPoint" />
          </mxGeometry>
        </mxCell>
        <mxCell id="B0hOVwlSUektJ_psYXs9-37" style="edgeStyle=orthogonalEdgeStyle;rounded=0;orthogonalLoop=1;jettySize=auto;html=1;strokeWidth=2;entryX=1;entryY=0.75;entryDx=0;entryDy=0;exitX=-0.005;exitY=0.643;exitDx=0;exitDy=0;exitPerimeter=0;movable=1;resizable=1;rotatable=1;deletable=1;editable=1;locked=0;connectable=1;" edge="1" parent="1" source="B0hOVwlSUektJ_psYXs9-3" target="B0hOVwlSUektJ_psYXs9-1">
          <mxGeometry relative="1" as="geometry">
            <mxPoint x="440" y="1369.44" as="targetPoint" />
            <mxPoint x="380" y="1369" as="sourcePoint" />
          </mxGeometry>
        </mxCell>
        <mxCell id="B0hOVwlSUektJ_psYXs9-38" value="" style="group;strokeColor=#CFCFCF;strokeWidth=1;movable=1;resizable=1;rotatable=1;deletable=1;editable=1;locked=0;connectable=1;" vertex="1" connectable="0" parent="1">
          <mxGeometry x="583" y="1260" width="178" height="140" as="geometry" />
        </mxCell>
        <mxCell id="B0hOVwlSUektJ_psYXs9-2" value="&lt;font style=&quot;font-size: 24px;&quot;&gt;&lt;br&gt;&lt;/font&gt;" style="rounded=0;whiteSpace=wrap;html=1;fillColor=#f5f5f5;strokeWidth=1;movable=1;resizable=1;rotatable=1;deletable=1;editable=1;locked=0;connectable=1;" vertex="1" parent="B0hOVwlSUektJ_psYXs9-38">
          <mxGeometry width="178" height="140" as="geometry" />
        </mxCell>
        <mxCell id="B0hOVwlSUektJ_psYXs9-4" value="&lt;font style=&quot;font-size: 16px;&quot;&gt;low-frequency&lt;br style=&quot;box-sizing: border-box; color: transparent; cursor: text; position: absolute; transform-origin: 0px 0px; font-family: Lato, sans-serif; text-align: start; background-color: rgb(255, 255, 255);&quot; role=&quot;presentation&quot;&gt;&lt;span style=&quot;box-sizing: border-box; color: transparent; cursor: text; position: absolute; transform-origin: 0px 0px; text-align: start; background-color: rgb(255, 255, 255); left: 496.155px; top: 989.987px; font-family: sans-serif; transform: scaleX(0.837922);&quot; dir=&quot;ltr&quot; role=&quot;presentation&quot;&gt;frequency&lt;/span&gt;&lt;/font&gt;" style="rounded=0;whiteSpace=wrap;html=1;fillColor=#c7c7c7;strokeWidth=1;movable=1;resizable=1;rotatable=1;deletable=1;editable=1;locked=0;connectable=1;" vertex="1" parent="B0hOVwlSUektJ_psYXs9-38">
          <mxGeometry x="14.9579831932773" y="77.33333333333326" width="148.08403361344534" height="46.66666666666666" as="geometry" />
        </mxCell>
        <mxCell id="B0hOVwlSUektJ_psYXs9-5" value="&lt;font style=&quot;font-size: 16px;&quot;&gt;high-frequency&lt;br style=&quot;box-sizing: border-box; color: transparent; cursor: text; position: absolute; transform-origin: 0px 0px; font-family: Lato, sans-serif; text-align: start; background-color: rgb(255, 255, 255);&quot; role=&quot;presentation&quot;&gt;&lt;span style=&quot;box-sizing: border-box; color: transparent; cursor: text; position: absolute; transform-origin: 0px 0px; text-align: start; background-color: rgb(255, 255, 255); left: 496.155px; top: 989.987px; font-family: sans-serif; transform: scaleX(0.837922);&quot; dir=&quot;ltr&quot; role=&quot;presentation&quot;&gt;frequency&lt;/span&gt;&lt;/font&gt;" style="rounded=0;whiteSpace=wrap;html=1;fillColor=#c7c7c7;strokeWidth=1;movable=1;resizable=1;rotatable=1;deletable=1;editable=1;locked=0;connectable=1;" vertex="1" parent="B0hOVwlSUektJ_psYXs9-38">
          <mxGeometry x="14.9579831932773" y="14" width="148.08403361344534" height="47.66666666666666" as="geometry" />
        </mxCell>
        <mxCell id="B0hOVwlSUektJ_psYXs9-21" style="edgeStyle=orthogonalEdgeStyle;rounded=0;orthogonalLoop=1;jettySize=auto;html=1;strokeWidth=2;exitX=1.008;exitY=0.458;exitDx=0;exitDy=0;exitPerimeter=0;entryX=0;entryY=0.5;entryDx=0;entryDy=0;movable=1;resizable=1;rotatable=1;deletable=1;editable=1;locked=0;connectable=1;" edge="1" parent="1" source="B0hOVwlSUektJ_psYXs9-5" target="B0hOVwlSUektJ_psYXs9-23">
          <mxGeometry relative="1" as="geometry">
            <mxPoint x="870" y="1311" as="targetPoint" />
            <mxPoint x="801" y="1320" as="sourcePoint" />
          </mxGeometry>
        </mxCell>
        <mxCell id="B0hOVwlSUektJ_psYXs9-45" value="Upscale" style="text;html=1;align=center;verticalAlign=middle;resizable=0;points=[];autosize=1;strokeColor=none;fillColor=none;" vertex="1" parent="1">
          <mxGeometry x="380" y="1398.67" width="70" height="30" as="geometry" />
        </mxCell>
        <mxCell id="B0hOVwlSUektJ_psYXs9-46" value="Downscale" style="text;html=1;align=center;verticalAlign=middle;resizable=0;points=[];autosize=1;strokeColor=none;fillColor=none;" vertex="1" parent="1">
          <mxGeometry x="370" y="1315" width="80" height="30" as="geometry" />
        </mxCell>
      </root>
    </mxGraphModel>
  </diagram>
</mxfile>
